<mxfile host="app.diagrams.net" modified="2024-05-16T18:45:53.923Z" agent="Mozilla/5.0 (Windows NT 10.0; Win64; x64) AppleWebKit/537.36 (KHTML, like Gecko) Chrome/124.0.0.0 Safari/537.36" etag="nLXW3FFM7zzP7vP9btRe" version="24.4.2" type="device">
  <diagram name="Page-1" id="tTaiT6DtzSgB03PHmm5q">
    <mxGraphModel dx="-196" dy="952" grid="1" gridSize="10" guides="1" tooltips="1" connect="1" arrows="1" fold="1" page="1" pageScale="1" pageWidth="827" pageHeight="1169" math="0" shadow="0">
      <root>
        <mxCell id="0" />
        <mxCell id="1" parent="0" />
        <mxCell id="wB5PeuQDO5lMFYIjouoQ-17" value="" style="rounded=0;whiteSpace=wrap;html=1;fillColor=none;" vertex="1" parent="1">
          <mxGeometry x="990" y="80" width="510" height="380" as="geometry" />
        </mxCell>
        <mxCell id="wB5PeuQDO5lMFYIjouoQ-5" value="" style="whiteSpace=wrap;html=1;aspect=fixed;fillColor=#dae8fc;dashed=1;strokeColor=#6c8ebf;" vertex="1" parent="1">
          <mxGeometry x="1020" y="120" width="221" height="221" as="geometry" />
        </mxCell>
        <mxCell id="wB5PeuQDO5lMFYIjouoQ-2" value="" style="shape=image;verticalLabelPosition=bottom;labelBackgroundColor=default;verticalAlign=top;aspect=fixed;imageAspect=0;image=data:image/svg+xml,PHN2ZyB4bWxucz0iaHR0cDovL3d3dy53My5vcmcvMjAwMC9zdmciIHdpZHRoPSIyNTAwIiB2aWV3Qm94PSItMTEuOSAtMiAxMDAzLjkgOTk1LjYiIGhlaWdodD0iMjQ1NSI+PHBhdGggZmlsbD0iIzI0ODljYSIgZD0ibTEyLjEgMzUzLjlzLTI0LTE3LjMgNC44LTQwLjRsNjcuMS02MHMxOS4yLTIwLjIgMzkuNS0yLjZsNjE5LjIgNDY4Ljh2MjI0LjhzLS4zIDM1LjMtNDUuNiAzMS40eiIvPjxwYXRoIGZpbGw9IiMxMDcwYjMiIGQ9Im0xNzEuNyA0OTguOC0xNTkuNiAxNDUuMXMtMTYuNCAxMi4yIDAgMzRsNzQuMSA2Ny40czE3LjYgMTguOSA0My42LTIuNmwxNjkuMi0xMjguM3oiLz48cGF0aCBmaWxsPSIjMDg3N2I5IiBkPSJtNDUxLjkgNTAwIDI5Mi43LTIyMy41LTEuOS0yMjMuNnMtMTIuNS00OC44LTU0LjItMjMuNGwtMzg5LjUgMzU0LjV6Ii8+PHBhdGggZmlsbD0iIzNjOTlkNCIgZD0ibTY5Ny4xIDk3Ni4yYzE3IDE3LjQgMzcuNiAxMS43IDM3LjYgMTEuN2wyMjguMS0xMTIuNGMyOS4yLTE5LjkgMjUuMS00NC42IDI1LjEtNDQuNnYtNjcxLjJjMC0yOS41LTMwLjItMzkuNy0zMC4yLTM5LjdsLTE5Ny43LTk1LjNjLTQzLjItMjYuNy03MS41IDQuOC03MS41IDQuOHMzNi40LTI2LjIgNTQuMiAyMy40djg4Ny41YzAgNi4xLTEuMyAxMi4xLTMuOSAxNy41LTUuMiAxMC41LTE2LjUgMjAuMy00My42IDE2LjJ6Ii8+PC9zdmc+;" vertex="1" parent="1">
          <mxGeometry x="1201" y="191.32999999999998" width="79.81" height="78.35" as="geometry" />
        </mxCell>
        <mxCell id="wB5PeuQDO5lMFYIjouoQ-3" value="" style="shape=image;verticalLabelPosition=bottom;labelBackgroundColor=default;verticalAlign=top;aspect=fixed;imageAspect=0;image=data:image/svg+xml,PHN2ZyB4bWxucz0iaHR0cDovL3d3dy53My5vcmcvMjAwMC9zdmciIHByZXNlcnZlQXNwZWN0UmF0aW89InhNaW5ZTWluIG1lZXQiIHZpZXdCb3g9IjAuMTQ0OTk5OTk1ODI3Njc0ODcgMC4wNzIwMDAwMDQzNTExMzkwNyAyNTUuMzgyMDAzNzg0MTc5NyAyNTQuMDU0MDAwODU0NDkyMiIgaGVpZ2h0PSIyNDgwLjc2MjU5NjU3OTE1OSIgd2lkdGg9IjI0OTMuOTY0ODgwNzA0ODc5OCI+PGRlZnM+PGxpbmVhckdyYWRpZW50IGlkPSJhIiB5Mj0iNzguMjAxJSIgeDI9Ijc5LjYzOSUiIHkxPSIxMi4wMzklIiB4MT0iMTIuOTU5JSI+PHN0b3Agb2Zmc2V0PSIwJSIgc3RvcC1jb2xvcj0iIzM4N0VCOCIvPjxzdG9wIG9mZnNldD0iMTAwJSIgc3RvcC1jb2xvcj0iIzM2Njk5NCIvPjwvbGluZWFyR3JhZGllbnQ+PGxpbmVhckdyYWRpZW50IGlkPSJiIiB5Mj0iODguNDI5JSIgeDI9IjkwLjc0MiUiIHkxPSIyMC41NzklIiB4MT0iMTkuMTI4JSI+PHN0b3Agb2Zmc2V0PSIwJSIgc3RvcC1jb2xvcj0iI0ZGRTA1MiIvPjxzdG9wIG9mZnNldD0iMTAwJSIgc3RvcC1jb2xvcj0iI0ZGQzMzMSIvPjwvbGluZWFyR3JhZGllbnQ+PC9kZWZzPjxwYXRoIGZpbGw9InVybCgjYSkiIGQ9Ik0xMjYuOTE2LjA3MmMtNjQuODMyIDAtNjAuNzg0IDI4LjExNS02MC43ODQgMjguMTE1bC4wNzIgMjkuMTI4aDYxLjg2OHY4Ljc0NUg0MS42MzFTLjE0NSA2MS4zNTUuMTQ1IDEyNi43N2MwIDY1LjQxNyAzNi4yMSA2My4wOTcgMzYuMjEgNjMuMDk3aDIxLjYxdi0zMC4zNTZzLTEuMTY1LTM2LjIxIDM1LjYzMi0zNi4yMWg2MS4zNjJzMzQuNDc1LjU1NyAzNC40NzUtMzMuMzE5VjMzLjk3UzE5NC42Ny4wNzIgMTI2LjkxNi4wNzJ6TTkyLjgwMiAxOS42NmExMS4xMiAxMS4xMiAwIDAgMSAxMS4xMyAxMS4xMyAxMS4xMiAxMS4xMiAwIDAgMS0xMS4xMyAxMS4xMyAxMS4xMiAxMS4xMiAwIDAgMS0xMS4xMy0xMS4xMyAxMS4xMiAxMS4xMiAwIDAgMSAxMS4xMy0xMS4xM3oiLz48cGF0aCBmaWxsPSJ1cmwoI2IpIiBkPSJNMTI4Ljc1NyAyNTQuMTI2YzY0LjgzMiAwIDYwLjc4NC0yOC4xMTUgNjAuNzg0LTI4LjExNWwtLjA3Mi0yOS4xMjdIMTI3LjZ2LTguNzQ1aDg2LjQ0MXM0MS40ODYgNC43MDUgNDEuNDg2LTYwLjcxMmMwLTY1LjQxNi0zNi4yMS02My4wOTYtMzYuMjEtNjMuMDk2aC0yMS42MXYzMC4zNTVzMS4xNjUgMzYuMjEtMzUuNjMyIDM2LjIxaC02MS4zNjJzLTM0LjQ3NS0uNTU3LTM0LjQ3NSAzMy4zMnY1Ni4wMTNzLTUuMjM1IDMzLjg5NyA2Mi41MTggMzMuODk3em0zNC4xMTQtMTkuNTg2YTExLjEyIDExLjEyIDAgMCAxLTExLjEzLTExLjEzIDExLjEyIDExLjEyIDAgMCAxIDExLjEzLTExLjEzMSAxMS4xMiAxMS4xMiAwIDAgMSAxMS4xMyAxMS4xMyAxMS4xMiAxMS4xMiAwIDAgMS0xMS4xMyAxMS4xM3oiLz48L3N2Zz4=;" vertex="1" parent="1">
          <mxGeometry x="1090.67" y="150" width="79.65" height="79.25" as="geometry" />
        </mxCell>
        <mxCell id="wB5PeuQDO5lMFYIjouoQ-6" value="" style="endArrow=classic;html=1;rounded=0;" edge="1" parent="1">
          <mxGeometry width="50" height="50" relative="1" as="geometry">
            <mxPoint x="1290" y="240" as="sourcePoint" />
            <mxPoint x="1360" y="240" as="targetPoint" />
            <Array as="points">
              <mxPoint x="1330" y="240" />
              <mxPoint x="1360" y="240" />
            </Array>
          </mxGeometry>
        </mxCell>
        <mxCell id="wB5PeuQDO5lMFYIjouoQ-7" value="" style="shape=image;verticalLabelPosition=bottom;labelBackgroundColor=default;verticalAlign=top;aspect=fixed;imageAspect=0;image=data:image/svg+xml,PHN2ZyB4bWxucz0iaHR0cDovL3d3dy53My5vcmcvMjAwMC9zdmciIHZpZXdCb3g9IjAgMCAyNTYgMjE1IiBoZWlnaHQ9IjIxMDAiIHdpZHRoPSIyNTAwIj48ZyBmaWxsLXJ1bGU9ImV2ZW5vZGQiIGZpbGw9Im5vbmUiPjxwYXRoIGZpbGw9IiMzNjQ1NDgiIGQ9Ik0zOC42MTcgMTczLjk4NHYtMTYuMzYyYzAtMi4xNSAxLjM0NC0zLjg3NyAzLjU3LTMuODc3aC42MTZjMi4yMjUgMCAzLjU2MyAxLjcyOSAzLjU2MyAzLjg3N3YzNC40NDdjMCA4LjQtNC4xNSAxNS4wODQtMTEuMzgyIDE5LjM0MmEyMS4zNzQgMjEuMzc0IDAgMCAxLTEwLjk0NSAyLjk4NWgtMS41MzdjLTguNDAyIDAtMTUuMDc3LTQuMTUzLTE5LjM0Mi0xMS4zOGEyMS4zMTQgMjEuMzE0IDAgMCAxLTIuOTg0LTEwLjk0N3YtMS41MzVjMC04LjQwMyA0LjE1Mi0xNS4wODMgMTEuMzc4LTE5LjM0OWEyMS4yOTggMjEuMjk4IDAgMCAxIDEwLjk0OC0yLjk4NWgxLjUzN2M1LjY4NiAwIDEwLjUxIDIuMjA0IDE0LjU3OCA1Ljc4NHpNNy45MjQgMTkxLjNjMCA2LjA2OCAyLjk0MSAxMC42MyA4LjI1OCAxMy41NCAyLjE1IDEuMTc2IDQuNDg0IDEuODA4IDYuOTM3IDEuODA4IDUuOTU2IDAgMTAuMzc0LTIuODEgMTMuNDIxLTcuODU3IDEuNDE3LTIuMzQ4IDIuMDc3LTQuOTE3IDIuMDc3LTcuNjQ4IDAtNS4yNi0yLjQ5LTkuMzY1LTYuNzI5LTEyLjQxNC0yLjU3LTEuODQ4LTUuNDYzLTIuNzc1LTguNjE4LTIuNzc1LTYuNDkyIDAtMTEuMTY0IDMuMjgtMTMuOTY4IDkuMTA2LS45NDYgMS45Ny0xLjM3OCA0LjA2MS0xLjM3OCA2LjI0em02NS4zMjQtMjMuMWgxLjA3NGM4Ljk3OCAwIDE1LjgwNiA0LjM1NSAyMC4xMzMgMTIuMTkyIDEuNzMgMy4xMzUgMi42NTYgNi41NTcgMi42NTYgMTAuMTQydjEuNTM1YzAgOC40LTQuMTQyIDE1LjA5My0xMS4zODUgMTkuMzQzLTMuMzUzIDEuOTY3LTcuMDU3IDIuOTg0LTEwLjk0MyAyLjk4NGgtMS41MzVjLTguNDAyIDAtMTUuMDc5LTQuMTUzLTE5LjM0Mi0xMS4zOGEyMS4zMTYgMjEuMzE2IDAgMCAxLTIuOTg3LTEwLjk0N3YtMS41MzVjMC04LjQwNCA0LjE2OS0xNS4wNjIgMTEuMzc3LTE5LjM0NyAzLjM1MS0xLjk5MSA3LjA1OC0yLjk4NyAxMC45NTItMi45ODd6bS0xNC41OCAyMy4xYzAgNS44OSAyLjg5IDEwLjIyMyA3Ljg2NSAxMy4yNyAyLjMzNiAxLjQzIDQuOTA5IDIuMDc4IDcuNjM4IDIuMDc4IDUuODIgMCAxMC4xMjItMi45NTEgMTMuMTE2LTcuODYzIDEuNDI4LTIuMzQyIDIuMDc0LTQuOTE1IDIuMDc0LTcuNjQyIDAtNS40NzctMi42MzgtOS42NjEtNy4xNDgtMTIuNjkzLTIuNDcxLTEuNjYzLTUuMjIyLTIuNDk2LTguMTk4LTIuNDk2LTYuNDkyIDAtMTEuMTY0IDMuMjgtMTMuOTY3IDkuMTA2LS45NDggMS45Ny0xLjM4IDQuMDYxLTEuMzggNi4yNHptNzAuNjU2LTE0LjcyN2MtMS4xNy0uNTQ4LTMuMzYtLjczLTQuNjI0LS43NzgtNi40NzQtLjI0NC0xMS4xNTggMy40MDItMTMuOTA2IDkuMTEzLS45NDkgMS45Ny0xLjM4MiA0LjA1NS0xLjM4MiA2LjIzNSAwIDYuNjM3IDMuNDg1IDExLjI4NCA5LjQwOSAxNC4xMTcgMi4xNjQgMS4wMzQgNC45NTggMS4yMyA3LjMyMyAxLjIzIDIuMDggMCA1LjAyLTEuMjc0IDYuODY2LTIuMTUxbC4zMi0uMTUyaDEuNDMzbC4xNTguMDMyYzEuNzYyLjM2NyAzLjA5MiAxLjQ4NCAzLjA5MiAzLjM4di43NjdjMCA0LjcxOC04LjYyMiA1Ljc5OC0xMS45MTIgNi4wMjgtMTEuNjEuODAzLTIwLjI5My01LjU3My0yMy42MDMtMTYuNjQ3LS41NzUtMS45MjMtLjgzNC0zLjgzMy0uODM0LTUuODM3di0xLjUzM2MwLTguNDAzIDQuMTctMTUuMDU5IDExLjM3Ny0xOS4zNCAzLjM1MS0xLjk5IDcuMDU3LTIuOTkgMTAuOTUtMi45OWgxLjUzNmM0LjEzIDAgNy45MzQgMS4xNzMgMTEuMzQ0IDMuNTAybC4yOC4xOTQuMTc3LjI5MmMuMzY4LjYxLjY4NSAxLjMxNi42ODUgMi4wNDJ2Ljc2N2MwIDEuOTc4LTEuNDggMy4wNDItMy4yNjYgMy4zODZsLS4xNDguMDI2aC0uNDU4Yy0xLjE1NiAwLTMuNzg1LTEuMTk3LTQuODE3LTEuNjgzem0yNS4xMzQgNS4yNDdjMy4wMS0zLjAxNCA2LjAzLTYuMDIyIDkuMDg1LTguOTg2Ljg1MS0uODI3IDQuMDc0LTQuMzI3IDUuMzQzLTQuMzI3aDEuMzg4bC4xNTguMDMzYzEuNzY4LjM2NyAzLjA5MiAxLjQ4NiAzLjA5MiAzLjM4NnYuNzY2YzAgMS4yOTYtMS41MTggMi44MDItMi4zNTUgMy42ODktMS43OCAxLjg4Ny0zLjY1NCAzLjcxMi01LjQ3NiA1LjU2bC05LjM2MiA5LjUwNGM0LjAzMSA0LjA0IDguMDU4IDguMDgzIDEyLjA1NiAxMi4xNTRhMzEzLjMwNCAzMTMuMzA0IDAgMCAxIDMuMzAxIDMuMzk2Yy4zODUuNDA1Ljk1My45MDkgMS4yNzYgMS40Ny4zNDcuNTI2LjU2IDEuMTE5LjU2IDEuNzUydi44bC0uMDQ1LjE4NWMtLjQzNSAxLjc2OC0xLjU1NyAzLjE5NC0zLjUxNiAzLjE5NGgtLjYxN2MtMS4yODIgMC0yLjczLTEuNDUtMy42MDgtMi4yNzktMS44MS0xLjcwNi0zLjU1Ny0zLjUtNS4zMzEtNS4yNDNsLTUuOTQ5LTUuODR2OS4zMzRjMCAyLjE1LTEuMzQ2IDMuODc4LTMuNTY5IDMuODc4aC0uNjFjLTIuMjI2IDAtMy41Ny0xLjcyOC0zLjU3LTMuODc4di01Mi41OTZjMC0yLjE1IDEuMzQ1LTMuODcgMy41Ny0zLjg3aC42MWMyLjIyMyAwIDMuNTY5IDEuNzIgMy41NjkgMy44N3YyNC4wNDh6bTk2LjU3Ny0xMy4zMTNoLjc3YzIuMzI0IDAgMy44NzUgMS41NjYgMy44NzUgMy44NzcgMCAzLjIwOC0zLjA2NyA0LjAyOS01LjcyIDQuMDI5LTMuNDggMC02LjgwMyAyLjEwNy05LjIwMiA0LjQ3LTIuOTkxIDIuOTQ5LTQuMyA2LjcyNi00LjMgMTAuODc4djE4Ljc1OWMwIDIuMTUtMS4zNDMgMy44NzYtMy41NyAzLjg3NmgtLjYxMmMtMi4yMjcgMC0zLjU2OS0xLjcyNS0zLjU2OS0zLjg3NnYtMTkuODM2YzAtNy42MTcgMy43MDgtMTMuODM1IDkuODktMTguMTk2IDMuNjkxLTIuNjA1IDcuOTE5LTMuOTggMTIuNDM4LTMuOTh6bS01NS4wNzQgMzcuMTc2YzIuODIuOTg1IDYuMDM1Ljg0NCA4LjkyOC4zNCAxLjQ4LS42MjkgNS4yNjQtMi4yOCA2LjY1Ni0yLjAzOGwuMjE3LjAzNy4yLjA5OGMuODUuNDEyIDEuNjYxLjk5NSAyLjA5NSAxLjg2IDEuMDE0IDIuMDI3LjUyNyA0LjA2NS0xLjQ2NSA1LjIxNmwtLjY2My4zODNjLTcuMzUgNC4yNDItMTUuMTY4IDMuNjU0LTIyLjQ5NS0uMzA4LTMuNTAzLTEuODk0LTYuMTgzLTQuNzA1LTguMTYtOC4xMzJsLS40NjItLjgwMWMtNC43MTktOC4xNzItNC4wODItMTYuNzY4IDEuMjQtMjQuNTM5IDEuODM3LTIuNjg2IDQuMjM4LTQuNzYxIDcuMDQ1LTYuMzg0bDEuMDYyLS42MTNjNi45MjItMy45OTYgMTQuMzQxLTMuNzIyIDIxLjQ1LS4yMTUgMy44MjMgMS44ODYgNi45MiA0LjY5NyA5LjA1NCA4LjM5NGwuMzg0LjY2NmMxLjU1IDIuNjg2LS40NTggNS4wMjYtMi41MzEgNi42MjYtMi40MDYgMS44NTYtNC44MzUgNC4wOS03LjE0MSA2LjA4LTUuMTQyIDQuNDM5LTEwLjI3NiA4Ljg4OC0xNS40MTQgMTMuMzN6bS02LjY1NS00LjY3NGM1Ljc1LTQuOTMgMTEuNTAyLTkuODY1IDE3LjIzNy0xNC44MTYgMS45Ni0xLjY5IDQuMTA5LTMuNDQ0IDYuMDUzLTUuMjIxLTEuNTYtMS45NjYtNC4xNjYtMy4zODMtNi4zOC00LjIyOC00LjQ3LTEuNzAzLTguODc3LTEuMTMxLTEyLjk3NiAxLjIzNS01LjM2NSAzLjA5OC03LjY1IDguMDMxLTcuNDUgMTQuMTcuMDggMi40MTguNzMgNC43NDggMi4wMTMgNi44MDUuNDUyLjcyNS45NTcgMS40MDYgMS41MDMgMi4wNTV6TTE0Ny40ODggNDUuNzMyaDIyLjg2NnYyMy4zNzVoMTEuNTYxYzUuMzQgMCAxMC44MzEtLjk1MSAxNS44ODctMi42NjQgMi40ODUtLjg0MyA1LjI3My0yLjAxNSA3LjcyNC0zLjQ5LTMuMjI4LTQuMjE0LTQuODc2LTkuNTM1LTUuMzYtMTQuNzgtLjY2LTcuMTM1Ljc4LTE2LjQyMSA1LjYwOC0yMi4wMDVsMi40MDQtMi43OCAyLjg2NCAyLjMwM2M3LjIxMSA1Ljc5MyAxMy4yNzYgMTMuODg5IDE0LjM0NSAyMy4xMTggOC42ODMtMi41NTQgMTguODc4LTEuOTUgMjYuNTMxIDIuNDY3bDMuMTQgMS44MTItMS42NTIgMy4yMjZDMjQ2LjkzMyA2OC45NDYgMjMzLjQgNzIuODYgMjIwLjE3IDcyLjE2N2MtMTkuNzk3IDQ5LjMwOS02Mi44OTggNzIuNjUzLTExNS4xNTcgNzIuNjUzLTI3IDAtNTEuNzctMTAuMDkzLTY1Ljg3Ni0zNC4wNDdsLS4yMzEtLjM5LTIuMDU1LTQuMTgyYy00Ljc2OC0xMC41NDQtNi4zNTItMjIuMDk1LTUuMjc4LTMzLjYzN2wuMzIzLTMuNDU3SDUxLjQ1VjQ1LjczMmgyMi44NjVWMjIuODY2aDQ1LjczM1YwaDI3LjQ0djQ1LjczMiIvPjxwYXRoIGZpbGw9IiMyMkEwQzgiIGQ9Ik0yMjEuNTcgNTQuMzhjMS41MzMtMTEuOTE2LTcuMzg0LTIxLjI3NS0xMi45MTQtMjUuNzE5LTYuMzczIDcuMzY4LTcuMzYzIDI2LjY3OCAyLjYzNSAzNC44MDgtNS41OCA0Ljk1Ni0xNy4zMzcgOS40NDgtMjkuMzc2IDkuNDQ4SDM1LjM3Yy0xLjE3IDEyLjU2NyAxLjAzNiAyNC4xNCA2LjA3NSAzNC4wNDVsMS42NjcgMy4wNWE1Ni41MzYgNTYuNTM2IDAgMCAwIDMuNDU1IDUuMTg0YzYuMDI1LjM4NyAxMS41OC41MiAxNi42NjIuNDA4aC4wMDJjOS45ODctLjIyIDE4LjEzNi0xLjQgMjQuMzEyLTMuNTRhMS43NjEgMS43NjEgMCAwIDEgMS4xNTMgMy4zMjZjLS44MjIuMjg2LTEuNjc4LjU1Mi0yLjU2Mi44MDVoLS4wMDNjLTQuODYzIDEuMzg5LTEwLjA3OCAyLjMyMy0xNi44MDYgMi43MzguNC4wMDctLjQxNi4wNi0uNDE4LjA2LS4yMjkuMDE1LS41MTcuMDQ4LS43NDcuMDYtMi42NDguMTQ5LTUuNTA2LjE4LTguNDI4LjE4LTMuMTk2IDAtNi4zNDMtLjA2LTkuODYyLS4yNGwtLjA5LjA2YzEyLjIxIDEzLjcyNCAzMS4zMDIgMjEuOTU1IDU1LjIzNCAyMS45NTUgNTAuNjQ4IDAgOTMuNjA4LTIyLjQ1MiAxMTIuNjMyLTcyLjg1NyAxMy40OTYgMS4zODUgMjYuNDY3LTIuMDU3IDMyLjM2Ny0xMy41NzUtOS4zOTgtNS40MjMtMjEuNDg0LTMuNjk0LTI4LjQ0My0uMTk2Ii8+PHBhdGggZmlsbD0iIzM3QjFEOSIgZD0iTTIyMS41NyA1NC4zOGMxLjUzMy0xMS45MTYtNy4zODQtMjEuMjc1LTEyLjkxNC0yNS43MTktNi4zNzMgNy4zNjgtNy4zNjMgMjYuNjc4IDIuNjM1IDM0LjgwOC01LjU4IDQuOTU2LTE3LjMzNyA5LjQ0OC0yOS4zNzYgOS40NDhINDQuMDQ4Yy0uNTk4IDE5LjI0NiA2LjU0NCAzMy44NTUgMTkuMTggNDIuNjg3aC4wMDNjOS45ODctLjIyIDE4LjEzNi0xLjQgMjQuMzEyLTMuNTRhMS43NjEgMS43NjEgMCAwIDEgMS4xNTMgMy4zMjZjLS44MjIuMjg2LTEuNjc4LjU1Mi0yLjU2Mi44MDVoLS4wMDNjLTQuODYzIDEuMzg5LTEwLjUyNiAyLjQ0My0xNy4yNTQgMi44NTgtLjAwMiAwLS4xNjMtLjE1NS0uMTY1LS4xNTUgMTcuMjM3IDguODQyIDQyLjIzIDguODEgNzAuODg1LTIuMTk3IDMyLjEzLTEyLjM0NCA2Mi4wMjktMzUuODYgODIuODktNjIuNzU3LS4zMTQuMTQyLS42Mi4yODctLjkxNy40MzYiLz48cGF0aCBmaWxsPSIjMUI4MUE1IiBkPSJNMzUuNjQ1IDg4LjE4NmMuOTEgNi43MzIgMi44OCAxMy4wMzUgNS44IDE4Ljc3NmwxLjY2NyAzLjA1YTU2LjQzMiA1Ni40MzIgMCAwIDAgMy40NTUgNS4xODRjNi4wMjYuMzg3IDExLjU4MS41MiAxNi42NjQuNDA4IDkuOTg3LS4yMiAxOC4xMzYtMS40IDI0LjMxMi0zLjU0YTEuNzYxIDEuNzYxIDAgMCAxIDEuMTUzIDMuMzI2Yy0uODIyLjI4Ni0xLjY3OC41NTItMi41NjIuODA1aC0uMDAzYy00Ljg2MyAxLjM4OS0xMC40OTYgMi4zODMtMTcuMjI0IDIuNzk5LS4yMzEuMDE0LS42MzQuMDE3LS44NjcuMDMtMi42NDYuMTQ4LTUuNDc1LjIzOS04LjM5OC4yMzktMy4xOTUgMC02LjQ2My0uMDYxLTkuOTgtLjI0IDEyLjIxIDEzLjcyNCAzMS40MiAyMS45ODUgNTUuMzUyIDIxLjk4NSA0My4zNiAwIDgxLjA4NC0xNi40NTggMTAyLjk3OS01Mi44MjJIMzUuNjQ1Ii8+PHBhdGggZmlsbD0iIzFEOTFCNCIgZD0iTTQ1LjM2NyA4OC4xODZjMi41OTIgMTEuODIgOC44MjEgMjEuMDk5IDE3Ljg2NCAyNy40MTggOS45ODctLjIyIDE4LjEzNi0xLjQgMjQuMzEyLTMuNTRhMS43NjEgMS43NjEgMCAwIDEgMS4xNTMgMy4zMjZjLS44MjIuMjg2LTEuNjc4LjU1Mi0yLjU2Mi44MDVoLS4wMDNjLTQuODYzIDEuMzg5LTEwLjYxNSAyLjM4My0xNy4zNDQgMi43OTkgMTcuMjM2IDguODQgNDIuMTU3IDguNzEzIDcwLjgxLTIuMjkzIDE3LjMzNC02LjY2IDM0LjAxNy0xNi41NzQgNDguOTg0LTI4LjUxNUg0NS4zNjciLz48cGF0aCBmaWxsPSIjMjNBM0MyIiBkPSJNNTUuMjYgNDkuNTQzaDE5LjgxOHYxOS44MThINTUuMjZWNDkuNTQzem0xLjY1MSAxLjY1MmgxLjU2NFY2Ny43MWgtMS41NjRWNTEuMTk1em0yLjk0IDBoMS42MjdWNjcuNzFoLTEuNjI2VjUxLjE5NXptMy4wMDIgMGgxLjYyN1Y2Ny43MWgtMS42MjdWNTEuMTk1em0zLjAwNCAwaDEuNjI2VjY3LjcxaC0xLjYyNlY1MS4xOTV6bTMuMDAzIDBoMS42MjZWNjcuNzFINjguODZWNTEuMTk1em0zLjAwMiAwaDEuNTY1VjY3LjcxaC0xLjU2NVY1MS4xOTV6TTc4LjEyNiAyNi42NzdoMTkuODE5djE5LjgxN2gtMTkuODJWMjYuNjc3em0xLjY1MiAxLjY1MmgxLjU2M3YxNi41MTRoLTEuNTYzVjI4LjMyOXptMi45NCAwaDEuNjI2djE2LjUxNGgtMS42MjVWMjguMzI5em0zLjAwMiAwaDEuNjI2djE2LjUxNEg4NS43MlYyOC4zMjl6bTMuMDAzIDBoMS42MjZ2MTYuNTE0aC0xLjYyNlYyOC4zMjl6bTMuMDAzIDBoMS42Mjd2MTYuNTE0aC0xLjYyN1YyOC4zMjl6bTMuMDAyIDBoMS41NjZ2MTYuNTE0aC0xLjU2NlYyOC4zMjl6Ii8+PHBhdGggZmlsbD0iIzM0QkJERSIgZD0iTTc4LjEyNiA0OS41NDNoMTkuODE5djE5LjgxOGgtMTkuODJWNDkuNTQzem0xLjY1MiAxLjY1MmgxLjU2M1Y2Ny43MWgtMS41NjNWNTEuMTk1em0yLjk0IDBoMS42MjZWNjcuNzFoLTEuNjI1VjUxLjE5NXptMy4wMDIgMGgxLjYyNlY2Ny43MUg4NS43MlY1MS4xOTV6bTMuMDAzIDBoMS42MjZWNjcuNzFoLTEuNjI2VjUxLjE5NXptMy4wMDMgMGgxLjYyN1Y2Ny43MWgtMS42MjdWNTEuMTk1em0zLjAwMiAwaDEuNTY2VjY3LjcxaC0xLjU2NlY1MS4xOTV6Ii8+PHBhdGggZmlsbD0iIzIzQTNDMiIgZD0iTTEwMC45OTMgNDkuNTQzaDE5LjgxOHYxOS44MThoLTE5LjgxOFY0OS41NDN6bTEuNjUxIDEuNjUyaDEuNTYzVjY3LjcxaC0xLjU2M1Y1MS4xOTV6bTIuOTQgMGgxLjYyNlY2Ny43MWgtMS42MjZWNTEuMTk1em0zLjAwMyAwaDEuNjI2VjY3LjcxaC0xLjYyNlY1MS4xOTV6bTMuMDAzIDBoMS42MjZWNjcuNzFoLTEuNjI2VjUxLjE5NXptMy4wMDIgMGgxLjYyOFY2Ny43MWgtMS42MjhWNTEuMTk1em0zLjAwMyAwaDEuNTY0VjY3LjcxaC0xLjU2NFY1MS4xOTV6Ii8+PHBhdGggZmlsbD0iIzM0QkJERSIgZD0iTTEwMC45OTMgMjYuNjc3aDE5LjgxOHYxOS44MTdoLTE5LjgxOFYyNi42Nzd6bTEuNjUxIDEuNjUyaDEuNTYzdjE2LjUxNGgtMS41NjNWMjguMzI5em0yLjk0IDBoMS42MjZ2MTYuNTE0aC0xLjYyNlYyOC4zMjl6bTMuMDAzIDBoMS42MjZ2MTYuNTE0aC0xLjYyNlYyOC4zMjl6bTMuMDAzIDBoMS42MjZ2MTYuNTE0aC0xLjYyNlYyOC4zMjl6bTMuMDAyIDBoMS42Mjh2MTYuNTE0aC0xLjYyOFYyOC4zMjl6bTMuMDAzIDBoMS41NjR2MTYuNTE0aC0xLjU2NFYyOC4zMjl6TTEyMy44NTkgNDkuNTQzaDE5LjgxOHYxOS44MThoLTE5LjgxOFY0OS41NDN6bTEuNjUyIDEuNjUyaDEuNTYzVjY3LjcxaC0xLjU2M1Y1MS4xOTV6bTIuOTQgMGgxLjYyNlY2Ny43MWgtMS42MjZWNTEuMTk1em0zLjAwMiAwaDEuNjI2VjY3LjcxaC0xLjYyNlY1MS4xOTV6bTMuMDAzIDBoMS42MjdWNjcuNzFoLTEuNjI3VjUxLjE5NXptMy4wMDMgMGgxLjYyN1Y2Ny43MWgtMS42MjdWNTEuMTk1em0zLjAwMyAwaDEuNTY0VjY3LjcxaC0xLjU2NFY1MS4xOTV6Ii8+PHBhdGggZmlsbD0iIzIzQTNDMiIgZD0iTTEyMy44NTkgMjYuNjc3aDE5LjgxOHYxOS44MTdoLTE5LjgxOFYyNi42Nzd6bTEuNjUyIDEuNjUyaDEuNTYzdjE2LjUxNGgtMS41NjNWMjguMzI5em0yLjk0IDBoMS42MjZ2MTYuNTE0aC0xLjYyNlYyOC4zMjl6bTMuMDAyIDBoMS42MjZ2MTYuNTE0aC0xLjYyNlYyOC4zMjl6bTMuMDAzIDBoMS42Mjd2MTYuNTE0aC0xLjYyN1YyOC4zMjl6bTMuMDAzIDBoMS42Mjd2MTYuNTE0aC0xLjYyN1YyOC4zMjl6bTMuMDAzIDBoMS41NjR2MTYuNTE0aC0xLjU2NFYyOC4zMjl6Ii8+PHBhdGggZmlsbD0iIzM0QkJERSIgZD0iTTEyMy44NTkgMy44MWgxOS44MThWMjMuNjNoLTE5LjgxOFYzLjgxem0xLjY1MiAxLjY1MWgxLjU2M3YxNi41MTZoLTEuNTYzVjUuNDZ6bTIuOTQgMGgxLjYyNnYxNi41MTZoLTEuNjI2VjUuNDZ6bTMuMDAyIDBoMS42MjZ2MTYuNTE2aC0xLjYyNlY1LjQ2em0zLjAwMyAwaDEuNjI3djE2LjUxNmgtMS42MjdWNS40NnptMy4wMDMgMGgxLjYyN3YxNi41MTZoLTEuNjI3VjUuNDZ6bTMuMDAzIDBoMS41NjR2MTYuNTE2aC0xLjU2NFY1LjQ2eiIvPjxwYXRoIGZpbGw9IiMyM0EzQzIiIGQ9Ik0xNDYuNzI1IDQ5LjU0M2gxOS44MTh2MTkuODE4aC0xOS44MThWNDkuNTQzem0xLjY1IDEuNjUyaDEuNTY1VjY3LjcxaC0xLjU2NFY1MS4xOTV6bTIuOTQgMGgxLjYyN1Y2Ny43MWgtMS42MjZWNTEuMTk1em0zLjAwNCAwaDEuNjI3VjY3LjcxaC0xLjYyN1Y1MS4xOTV6bTMuMDAyIDBoMS42MjdWNjcuNzFoLTEuNjI3VjUxLjE5NXptMy4wMDQgMGgxLjYyNlY2Ny43MWgtMS42MjZWNTEuMTk1em0zLjAwMiAwaDEuNTY0VjY3LjcxaC0xLjU2NFY1MS4xOTV6Ii8+PHBhdGggZmlsbD0iI0QzRUNFQyIgZD0iTTk2LjcwNCAxMDEuNDkyYTUuNDY4IDUuNDY4IDAgMSAxLS4wMDIgMTAuOTM1IDUuNDY4IDUuNDY4IDAgMCAxIC4wMDItMTAuOTM1Ii8+PHBhdGggZmlsbD0iIzM2NDU0OCIgZD0iTTk2LjcwNCAxMDMuMDQzYy41IDAgLjk3Ny4wOTQgMS40MTcuMjY1YTEuNTk4IDEuNTk4IDAgMCAwIC43OTggMi45OGMuNjA1IDAgMS4xMy0uMzM1IDEuNDAyLS44MzFhMy45MTUgMy45MTUgMCAxIDEtMy42MTctMi40MTRNMCA5MC4xNjJoMjU0LjMyN2MtNS41MzctMS40MDQtMTcuNTItMy4zMDItMTUuNTQ0LTEwLjU2LTEwLjA3IDExLjY1Mi0zNC4zNTMgOC4xNzUtNDAuNDgyIDIuNDMtNi44MjQgOS44OTgtNDYuNTU0IDYuMTM1LTQ5LjMyNS0xLjU3Ni04LjU1NiAxMC4wNDEtMzUuMDY3IDEwLjA0MS00My42MjMgMC0yLjc3MyA3LjcxMS00Mi41MDIgMTEuNDc0LTQ5LjMyNyAxLjU3NS02LjEyOCA1Ljc0Ni0zMC40MSA5LjIyMy00MC40OC0yLjQyOEMxNy41MjIgODYuODYgNS41MzkgODguNzU4IDAgOTAuMTYzIi8+PHBhdGggZmlsbD0iI0JERDlENyIgZD0iTTExMS4yMzcgMTQwLjg5Yy0xMy41NC02LjQyNS0yMC45NzEtMTUuMTYtMjUuMTA2LTI0LjY5NC01LjAzIDEuNDM1LTExLjA3NSAyLjM1My0xOC4xIDIuNzQ3LTIuNjQ2LjE0OC01LjQzLjIyNC04LjM1LjIyNC0zLjM2OCAwLTYuOTE3LS4xLTEwLjY0My0uMjk3IDEyLjQxNyAxMi40MSAyNy42OTIgMjEuOTY0IDU1Ljk3NiAyMi4xMzggMi4wODggMCA0LjE2LS4wNCA2LjIyMy0uMTE4Ii8+PHBhdGggZmlsbD0iI0QzRUNFQyIgZD0iTTkxLjE2IDEyNC45OTRjLTEuODczLTIuNTQzLTMuNjktNS43MzktNS4wMjYtOC44LTUuMDMgMS40MzctMTEuMDc3IDIuMzU1LTE4LjEwMyAyLjc1IDQuODI2IDIuNjE5IDExLjcyNyA1LjA0NiAyMy4xMyA2LjA1Ii8+PC9nPjwvc3ZnPg==;" vertex="1" parent="1">
          <mxGeometry x="1350" y="191.33" width="95.24" height="80" as="geometry" />
        </mxCell>
        <mxCell id="wB5PeuQDO5lMFYIjouoQ-8" value="" style="endArrow=classic;html=1;rounded=0;" edge="1" parent="1">
          <mxGeometry width="50" height="50" relative="1" as="geometry">
            <mxPoint x="1400" y="280" as="sourcePoint" />
            <mxPoint x="1400" y="340" as="targetPoint" />
          </mxGeometry>
        </mxCell>
        <mxCell id="wB5PeuQDO5lMFYIjouoQ-9" value="" style="shape=image;verticalLabelPosition=bottom;labelBackgroundColor=default;verticalAlign=top;aspect=fixed;imageAspect=0;image=data:image/svg+xml,PHN2ZyB4bWxuczp4bGluaz0iaHR0cDovL3d3dy53My5vcmcvMTk5OS94bGluayIgeG1sbnM9Imh0dHA6Ly93d3cudzMub3JnLzIwMDAvc3ZnIiB4bWw6c3BhY2U9InByZXNlcnZlIiB2aWV3Qm94PSIwIDAgNTEyIDUxMiIgaGVpZ2h0PSI1MTJweCIgd2lkdGg9IjUxMnB4IiB5PSIwcHgiIHg9IjBweCIgaWQ9IkxheWVyXzEiIHZlcnNpb249IjEuMSI+ICA8aW1hZ2UgaHJlZj0iZGF0YTppbWFnZS9wbmc7YmFzZTY0LGlWQk9SdzBLR2dvQUFBQU5TVWhFVWdBQUFnQUFBQUlBQ0FZQUFBRDBlTlQ2QUFBQUJHZEJUVUVBQUxHUEMveGhCUUFBQUNCalNGSk4mIzEwO0FBQjZKZ0FBZ0lRQUFQb0FBQUNBNkFBQWRUQUFBT3BnQUFBNm1BQUFGM0NjdWxFOEFBQUFCbUpMUjBRQS93RC9BUCtndmFlVEFBQUEmIzEwO0NYQklXWE1BQUE5R0FBQVBSZ0ZvVXlDQ0FBQWJaRWxFUVZSNDJ1M2RXNHlrYVhuWThhY09QYjF6bnVrNWRPOEpGbmJCeThKaUMyd1omIzEwOzdNakdOaEdzUTJ5SWxKTlE3aUtETHdJR3lUY0xGaXlIelUwdUlsWVd6b1VqcjFhanlKQklKckV5aWtTRXJUam1JaWlLeldaWVFZQTEmIzEwO003UEw3TEhuMEYxZGgrN0tSWGYxVlBkVTliRzZ2cXA2ZmorcE5iMDkzVDFmdGJSNi8xM1BXKzlYYXJmYkFRRGtVaTc2QWdDQTRSTUEmIzEwO0FKQ1FBQUNBaEFRQUFDUWtBQUFnSVFFQUFBa0pBQUJJU0FBQVFFSUNBQUFTRWdBQWtKQUFBSUNFQkFBQUpDUUFBQ0FoQVFBQUNRa0EmIzEwO0FFaElBQUJBUWdJQUFCSVNBQUNRa0FBQWdJUUVBQUFrSkFBQUlDRUJBQUFKQ1FBQVNFZ0FBRUJDQWdBQUVoSUFBSkNRQUFDQWhBUUEmIzEwO0FDUWtBQUFnSVFFQUFBa0pBQUJJU0FBQVFFSUNBQUFTRWdBQWtKQUFBSUNFQkFBQUpDUUFBQ0FoQVFBQUNRa0FBRWhJQUFCQVFnSUEmIzEwO0FCSVNBQUNRa0FBQWdJUUVBQUFrSkFBQUlDRUJBQUFKQ1FBQVNFZ0FBRUJDQWdBQUVoSUFBSkNRQUFDQWhBUUFBQ1FrQUFBZ0lRRUEmIzEwO0FBa0pBQUJJU0FBQVFFSUNBQUFTRWdBQWtKQUFBSUNFQkFBQUpDUUFBQ0FoQVFBQUNRa0FBRWhJQUFCQVFnSUFBQklTQUFDUWtBQUEmIzEwO2dJUUVBQUFrSkFBQUlDRUJBQUFKQ1FBQVNFZ0FBRUJDQWdBQUVoSUFBSkNRQUFDQWhBUUFBQ1FrQUFBZ0lRRUFBQWtKQUFCSVNBQUEmIzEwO1FFSUNBQUFTRWdBQWtKQUFBSUNFQkFBQUpDUUFBQ0FoQVFBQUNRa0FBRWhJQUFCQVFnSUFBQklTQUFDUWtBQUFnSVFFQUFBa0pBQUEmIzEwO0lDRUJBQUFKQ1FBQVNFZ0FBRUJDQWdBQUVoSUFBSkNRQUFDQWhBUUFBQ1FrQUFBZ0lRRUFBQWtKQUFCSVNBQUFRRUlDSUpFSC85bW4mIzEwO3BvcStCZ0JHUTZuZGJoZDlEUnl3MlU4KzlXRHo2TXpUMWRxTlh6ajczRi9WSXVLSGZkNnVYTHA0WWFYbzZ3WGc0QW1BQ2RaWitCZlAmIzEwOzN2OUxLOVZEcFpPWG40MXp6MzVycXk5cFJNVHowVHNPZm5UcDRvV2xvaDhUQUlNaEFDYlE1b1cvOC9FZEJNQlcyaEh4UW15S2dzNzcmIzEwO2x5NWVlTFhveHczQXpnbUFDZEp2NGUvWVp3QnM1M29ZTFFDTURRRXdBYlpiK0RzT09BQzJZclFBTUdJRXdCamI2Y0xmVVdBQWJLWFgmIzEwO2FHRjl2R0MwQUhBd0JNQVkydTNDM3pHaUFiQWRvd1dBQXlBQXhzaGVGLzZPTVEyQXJUUWk0c2ZSdFJreGpCWUFka1FBaklIOUx2d2QmIzEwO0V4Z0FXK2szV3VqRWdkRUNrSm9BR0dHRFd2ZzdrZ1hBZG93V2dOUUV3QWdhOU1MZklRQjJyRE5hMkhEV1FSZ3RBQk5FQUl5UWcxcjQmIzEwO093VEFRQmd0QUJOQkFJeUFnMTc0T3dUQVVCZ3RBR05CQUJSb1dBdC9od0FvWFBkb1lmTjR3V2dCR0NvQlVJQmhML3dkQW1Da2JUVmEmIzEwOytPR2xpeGRlSy9vQ2dja2lBSVpvZGVFLy9mVGkyVGNNZGVIdkVBQmp6V2dCR0NnQk1BUkZML3dkQW1CaUdTMEF1eVlBRHRDb0xQd2QmIzEwO0FpQWxvd1dnSndGd0FFWnQ0ZThRQVBRd0g3MlBValphZ0FrbkFBWm9WQmYrRGdIQUxtMGVMWFNQRjR3V1lNd0pnQUVZOVlXL1F3QXcmIzEwO1FFWUxNT1lFd0Q2TXk4TGZJUUFZb3Zrd1dvQ1JKZ0QyWU53Vy9nNEJ3SWpvTlZyb2pCZU1GbUJJQk1BdWpPdkMzeUVBR0FOR0N6QWsmIzEwO0FtQUh4bjNoN3hBQVRJRDU2SDJYUnFNRjJDVUJzSVZKV2ZnN0JBQVR6bWdCZGtFQTlERDNpYTg4MURnMjh5ZVRzdkIzQ0FBU00xcUEmIzEwO1RRUkFsMGxkK0RzRUFQUTFINzJQVWpaYVlHSUpnSmo4aGI5REFNQ2U5QnN0L0RBaWZteTB3TGhLSFFCWkZ2NE9BUUFEWjdUQTJFb1omIzEwO0FOa1cvZzRCQUVNM0gwWUxqS2hVQWJDMjhEKzllUFlONzgyMDhIY0lBQmdwUmdzVUtrVUFaRi80T3dRQWpBMmpCUTdjUkFlQWhYOGomIzEwO0FRQVRZejU2MzZYUmFJRWRtOGdBc1BEM0pnQWdoWHBFUEI5R0MyeGpvZ0pnN3ZGbkhtcWVPUGZ2Rnc0ZCtYc1cvanNKQUVqUGFJRjEmIzEwO0V4RUFjNDgvODFEejlOelRpL2Yrekh2YnBVcHA1ZVhMUlYvU1NCSUF3RGJtby9kUnlrWUxFMmlzQStEMnd2L3dlMWVtcGtzUkVhVlcmIzEwO013UkFid0lBMkFlamhRa3psZ0hRYStGZmYwQUNvQzhCQUJ5UWRrUmNqZDUzYVRSYUdGRmpGUUJiTGZ6ckQwZ0E5Q1VBZ0lMTVIrOW4mIzEwO0RuNFVSZ3VGR1lzQTJNbkN2LzZBQkVCZkFnQVlRVVlMQlJucEFOak53ci8rZ0FSQVh3SUFHRE9kMFVLdm81U05GdlpwSkFOZzd2Rm4mIzEwO0htcWNubnU2dG91RmYvMEJDWUMrQkFBd1llYkRhR0hQUmlvQTlyUHdyejhnQWRDWEFBQVNNVnJZeGtnRXdDQVcvdlVISkFENkdxVUEmIzEwO1dMN3JXRno1clU5RmRXRStxcmZtbzdvNHYvcCsxMXVsZGl0V253RUVHS2p1MGNJZDQ0VXNvNFZxa2YvNCtzTC9qdmZ0ZStGbnpKUksmIzEwOzBUbzJFNjFqTXhHemZUNWxaZmwyREN4Y2orckM2M2RHd3RKQ2lBUmdsMG9SY2QvYTI2OXUvc3RISHZ2b2ZQUTVMVEVpcms3S2FLR1EmIzEwO0FKajc3SVczTkU2ZWY3cjJqdmU5eDhKUFArMXlKWnJIejBUeitKbStuMU5hYmtWMThmcGFKR3grRnVIMXFDNWNqOHJTcmFJZkNqQmUmIzEwO1RrWEV1OWZlTnFzLzh0aEhuNDhKR0MwTU5RRFdGLzVIZnNYQ3owQzBLOVVkUmtMWHFPSFdmRlFXZXoyVEFMQ3Q2WWo0bWJXM3pkcVAmIzEwO1BQYlJzUmt0RENVQUxQd1VhVFVTemtieitObStuMU5hYnQweFhyZzlmbGo3c3k0U2dDMk4xV2poUUFOZ2RlR2Z0ZkF6OHRxVmFqUlAmIzEwO25JM21pYTBpb2RrM0VqcHY1ZnBpMFE4RkdGMm5Zb1JHQ3djU0FCWitKbEc3TWhYTkUrZWllZUpjejcrdkxzeEg0M3ZmanFubVVsU2ImIzEwO1MxRnRyUDQ1MVZ5S2FxTzIvckhLY3JQb2h3S01udDJNRmphTUYvWTZXaGhvQUt3di9HLy8xZmVzVkE5WitFbW5YYTVFWS9wb05LYVAmIzEwOzl2MmMwc3B5bjBoWWltcHpOUlFxTFpFQXJEdVEwY0pBQXNEQ0R6c25Fb0FCT3hWN0dDM3NLd0FzL0hBdzlob0oxZVpTVEsyL1h4TUomIzEwO1FOL1J3cDRDWU80eno3eTFjZXJ1UDdId1EzRjJHZ25WWmoybW1yVStrYkFVbFZhajZJY0NGR0JYQVREM21XZmUyamg5OTlPMWQvemEmIzEwO0wxcjRZZlMxeTVWb1RoK0o1dlNSdnA5VFdsbFpHekgwaUlSV0k2b3JUZWNrd0FUYVVRQlkrR0Z5dGN2bHZwRndxRnlKNVovN2paN24mIzEwO0pEaE1DY2JibGdGZzRRY2lkbnBPUXI4VEY2ODdsaGxHVU04QW1QdnNoYmMyVHMxYStJRWQyL0dKaTExUnNIcVRKemQ0Z2lKc0NJRDEmIzEwO2hmL3R2MnJoQndadTU1SFE3d1pQSWdFR3BScGg0UWRHeDg1djhOUW5FaGF2Ui9YVzZ5SUJ0bEdkK1RmZi9MYUZIeGduTzRxRWxlV3UmIzEwO0d6cXQ3VU5ZdkI3VitXdFJtYjhXVTQyYWwwQ1NXblhoamU5OFQ5RVhBVEJvN1hLbFp5UWN1dnBjMUs3OUpDSWlTdTJWOVlPVTdqaDUmIzEwO3NWRnpUZ0lUYlNpM0F3WVlSZTFTT1pxSGprVHowSkdvOWZtY1VudWw3M0hNblFPVlJBTGpTQUFBYktGZHVuMU9RdDlJV0Q5TXFldk8mIzEwO2owNWNaTVFKQUlCOTJ1b3dwWTVlSnk2NndSTkZFZ0FBUTdDelNPaDNGOGphK3NjcXl5S0J3UkFBQUNOaVYzZUI3Qm92SEZwdVJmWFEmIzEwOzlQcExJOHYxeGFJZkNtTkFBQUNNa1Y2Uk1GMnRSdXVkdjc3KzM2VldZOE1Sek9zdmdldzZMMEVrSUFBQUpreTdlaWlhSjg5RjgrUzUmIzEwO3ZwK3pIZ25kOTIvWWRLaVNTSmhzQWdBZ29SMUZ3bkt6NTFITTNmZHlxTlRkQlhKY0NRQUFlbXBYcHFKNTRsdzBUK3drRWphTkhCYXUmIzEwO3J4L1RMQkpHa3dBQVlNOTJId21iYnV5MHNEcCtXTDEzQThNa0FBQTRVRHVMaE5hR01KaDY1WEtVWG5yZVlVb0hTQUFBVUxoMnBSck4mIzEwO0UyZWplV0wxVnRIVHgyZGk4ZERHbDBOdU9IR3g2M3dFa2JBM0FnQ0FzYkM3RXhlN0QxUnk3NFplQkFBQUUyTkhrZER6Qmsrcm9aQXAmIzEwO0VnUUFBS25zNkFaUENXNFZMUUFBWUpNZDN5cTZUeVIwUW1HVUkwRUFBTUFlN0R3UzZsRnQxT0xZalpmaTlFcy9MdnF5MTVXTHZnQUEmIzEwO21GU3JrWEE0YXNkbW9uYjBkTkdYczRFQUFJQ0VCQUFBSkNRQUFDQWhBUUFBQ1FrQUFFaElBQUJBUWdJQUFCSVNBQUNRa0FBQWdJUUUmIzEwO0FBQWtKQUFBSUNFQkFBQUpDUUFBU0VnQUFFQkNBZ0FBRWhJQUFKQ1FBQUNBaEFRQUFDUWtBQUFnSVFFQUFBa0pBQUJJU0FBQVFFSUMmIzEwO0FBQVNFZ0FBa0pBQUFJQ0VCQUFBSkNRQUFDQWhBUUFBQ1FrQUFFaElBQUJBUWdJQUFCSVNBQUNRa0FBQWdJU0dFZ0RWVzYvSDRSZSsmIzEwO0g5WEY2MFUvM3VGcHQrUFF3dXR4K0xXclVXa3VGWDAxQUxCQjlhQys4ZUVYdmgrbm52MVdUTDl5SlNwTHQ5WS92bno0ZU5UUDNoK3YmIzEwO3YvUDlzVFQ3cHFJZi84Q2R1SElwamw5OUxxWnZ2QnpsVm1QOTQ4M0RKMkxwMUZ5ODl0YjNSUFBJeWFJdkU0RGtCaDRBcFZZanpuem4mIzEwO3orUGtwYitLaVBZZGYxK3AzWXdqbHkvRmtTdmZpL2wzdkM5ZWU5ZHZScnR5WUIweU5OWDZRcHovN24rUEl5Ly9YYysvbjZyZGlLbmEmIzEwO2pUajYwby9qMVlkL09hNi80ZEdpTHhtQXhBYTY4cFphamJqdnYvemJPUFQ2aTl0L2Nyc2RwNzc3clRqOHdnL2k2b2MrT2RZUk1MVXcmIzEwO0gvZC8rMnRSYnRhMy9kenljalBPL2QrL2lMdGVmeUd1L2V3SGlyNTBBSklhNkI2QU05LzU4NTB0L2wybVg3MFNNLy83dnhiOWM5aTcmIzEwO2RqdG12L3ZOSFMzKzNZNi84UDA0OXVJUGlyNTZBSklhV0FBY2Z2RUhhMC83Nzk2cFovOGk3cnIyNDZKL0ZudTc5dWYvVDl5MXkranAmIzEwO09IZnBMNlBTcUJYOUVBQklhR0FCY1BwdnZobTladjQ3MG03SDZiLzladEUvaTcwOTdoOStaODlmVzJuVTR1VGxaNHQrQ0FBa05MQUEmIzEwO21IN2xjcUZmWDRTcHhldjdmb25mOVBXWGluNFlBQ1Ewa0FDWXV2bEtsUGY1VkhhbGRuUHN6Z21Zdm41dEFOOURBQUF3ZkFNSmdFT3YmIzEwOzdXMEdmbERmWjFpbWI3eXk3KzlSWGJxMTZ3MkVBTEJmQXdtQTBuSnJJQmRUV200VytzUFk5Zld1RE9oeHJ5d1gvVkFBU01hOUFBQWcmIzEwO0lRRUFBQWtKQUFCSVNBQUFRRUlDQUFBU0VnQUFrSkFBQUlDRUJBQUFKQ1FBQUNBaEFRQUFDUWtBQUVoSUFBQkFRZ0lBQUJJU0FBQ1EmIzEwO2tBQUFnSVFFQUFBa0pBQUFJQ0VCQUFBSkNRQUFTRWdBQUVCQ0FnQUFFaElBQUpDUUFBQ0FoQVFBQUNRa0FBQWdJUUVBQUFrSkFBQkkmIzEwO1NBQUFRRUlDQUFBU0VnQUFrSkFBQUlDRUJBQUFKQ1FBQUNBaEFRQUFDUWtBQUVoSUFBQkFRZ0lBQUJJU0FBQ1FrQUFBZ0lRRUFBQWsmIzEwO0pBQUFJQ0VCQUFBSkNRQUFTRWdBQUVCQ0FnQUFFaElBQUpDUUFBQ0FoQVFBQUNRa0FBQWdJUUVBQUFrSkFBQklTQUFBUUVJQ0FBQVMmIzEwO0VnQUFrSkFBQUlDRUJBQUFKQ1FBQUNBaEFRQUFDUWtBQUVoSUFBQkFRZ01KZ0pXcDZZRmN6S0MrRHdDd3RZRUVRT1BNdlFPNW1FRjkmIzEwO0h3Qmdhd01KZ05hUms3RjgrUGordnNleDA3RThmYlRvbndjQXBEQ3dQUUJMNTk2NHo2OS9vT2lmQlFDa01iQUFlTzNkdnhudGNtVlAmIzEwO1g5dXVUTVZyNy9wZzBUOExBRWhqWUFIUU9IMTN2UGF1eC9iMHRhLysvRCtJNXNuelJmOHNBQ0NOZ2I0TWNQN1JYNHZGKzkrK3E2OVomIzEwO2VPQm40L3JiZjZYb253TUFwRklkNkhjcmxlUEZ2Lzh2NDhSemZ4MW4vdGQvam5LejN2ZFRWdzRkamxkKzhTTng4eTIvVVBUUEFBRFMmIzEwO0dXd0FyTG54OEMvRjRuMFB4OG5uL2pxbVg3a2MwNjllaVhKOU1aYnZPaGIxTS9kRi9lejljZU50dnh5dEl5ZUxmdndBa05LQkJFQkUmIzEwO1JPdllUTHo2OHg5YS8rOUtmV0hpWHVhM2ZPand2cjlIdTFSMkFCSUFRemUwbzRBbmJmR1BpS2lmbk4zMzkyZ2VtOW56cXljQVlLL2MmIzEwO0MyQWZsZ1lRQUVzbnp4WDlNQUJJU0FEc3c4clVkTlNQbjkzWDk2ak5PUDRZZ09FVEFQdjA4dHZmRjFFcTdlbHJsMDdmSFRmdmViam8mIzEwO2h3QkFRZ0pnbjVaTzN4M3pEL3pjcnIrdVhhbkd0VWZmditkNEFJRDlFQUFEOE9wYjNoTUw1OSswNDg5ZnFSNkthNCsrUDVwSFR4VjkmIzEwOzZRQWtkV0F2QTh5a1hhbkdpKy8rVUJ5LytseWN1L1NYVVc0MStuNXU3Y3g5OGRLanZ4SE53eWVLdm13QUVoTUFBM1R6M29lamR2YismIzEwO09IcnRSekY5L2FXWXZ2RnlWT3NMVVQ5K051b256OGZTcWJsZFBWTUFBQWRGQUF4WWEvcG9YSC9EbzBWZkJnQnN5UjRBQUVoSUFBQkEmIzEwO1FnSUFBQklTQUFDUWtBQUFnSVFFQUFBa0pBQUFJQ0VCQUFBSkNRQUFTRWdBQUVCQ0FnQUFFaElBQUpDUUFBQ0FoQVFBQUNRa0FBQWcmIzEwO0lRRUFBQWtKQUFCSVNBQUFRRUlDQUFBU0VnQUFrSkFBQUlDRUJBQUFKQ1FBQUNBaEFRQUFDUWtBQUVpb1d2UUZBTUFrS2E4c1I2WFYmIzEwOzZIcXJSN1hWaUxzVzVvdSt0QTBFQUFCc29iU3lITlVOQy9ycVc3VlY3L0d4UnBSV2xvdSs1QjBSQUFDa1VscFpXZit0dk5jQ1h0bTAmIzEwO3NKZkhaRUhmTFFFQXdGZ3J0VmMyTHVETmVsU1cxeGJ3Wm1QVFFsK2YyQVY5dHdRQUFDT2x0TEljNWZwaVROZHVkUDFXZnVkTWZmMDMmIzEwOzlPVlcwWmM4bGdRQUFBZXF0TEljbGFWYlVhbmRpc3JTclNndnJmN1ovYkh1dDNKanFlaExUa0VBQUxBcnBlWFcybUs5c1BibnphZ3MmIzEwO0xhd3U3SnNYOU5xdEtEY3Q2S05JQUFBa3QzRkJ2M243L2RyTktIY3Y4clhWOXkzb2swRUFBRXlZMnd2Nm5VK3psN3NYK2RycSsrVm0mIzEwO3ZlaExwZ0FDQUdERWxWWlcxbmUxVjV0ckwxRmJYdDNoWG1rMW90cGVqc3BQL3ZiMmpOMkN6ZzRJQUlBaDIrcDE2SGZ1ZXZleU5RNkcmIzEwO0FBRFlwOUxhMGEvVkhTem1rM3l3RE9ORkFBQnNzdjJDbnVPa09DYWJBQUFtWHFuVldIL0oydFRyUDQycDE2NXVlWjY3QlowTUJBQXcmIzEwO2RtNHY2RGZYWHE1Mis3WG9tM2UrbDVkdVJiblZLUHFTWWVRSUFLQnc1VmFqNjNTNDFkZWZiM2hkZXUzV2hzVzlaRUdIZlJNQXdNQ3QmIzEwO0wrZzlqbm05OC9qWEJRczZGRUFBQU5zcXR4cWJUb1hiNGl6MzJxMG9MVGVMdm1SZ0c5VVR6LzNQTDlmUDN2Kzc5Yk52bUNuNllvRGgmIzEwO0tLMHM5OW5oWHI5engvdmYvRGNMT2t5ZzZzdC84SkhQUnNSblp6LzNwNy9kT0RYM1pHM3VvVWZhMWFtaXJ3dlloYTFmdG5ibm9sNnkmIzEwO3l4M1NXeDhCWEh2aW4zNGpJcjR4OTlrTGIyd2VtM2xxYWU3QngxcEhUeGtSUUFGSzdaWGJDM2F2bzE4ZExBUHMweDBML0UrLzlORy8mIzEwO2k0amZtbnY4bWVyeTRlTlBySTRIN2o5ZDlJWENPT3RlMFB1ZERyZitzV1lqeWl1dG9pOFptSEI5ZjhQLzZaUC9vaFVSbjRtSXp4Z1AmIzEwO3dFYWxsZVhiZDFkYmU0bmExTTFYNC9pTDMrLzU5SHQ1MllJT2pKWWRQY1hmR1EvTS9zRi9lS0IxN1BSVFM3TnYvcUR4QUpQa3pnVzkmIzEwOzF5NzMyL2RGTHpmY0R4MFliN3RheEs5OThaOC9IeEgvY083eFo2ckxSMDU4b1g3bXZvOGJEekNLMWhmMHJ0UGcrcjVzYmVtV0JSMUkmIzEwO1owKy94YStOQng2UGlNZG5QL2UxRHpkT3pYMjVOdmVnOFFBSHByVGN1dU8zOE1yU1F1L0RabXEzb3R5MG9BTnNaZDlQNDE5NzRwLzgmIzEwO1dVVDhtZkVBdTlKdVIzVmh2dXM4OTl0SHdKYTdGL25hNnZzV2RJQ0JhcFhhN2ZaQXYrTzVMMzFqS2lLZUtHbzhVR28xWStYbHk4UCsmIzEwO1o4ZkN5Y3ZQeHJsbnYxWDBaUUJ3c05vUmNTMGlMcSs5L2FUci9jN2Jpd01QZ0c2em4vdmFoeHVuNTU2c3pUNzR0bUdOQndSQWZ3SUEmIzEwO1lDSzhHbmN1Nk4xdlZ5OWR2TER0RFRZT05BQTZibzhISHZ4ZzYrakpBeDBQQ0lEK0JBREF5THNaV3kvdWx5OWR2TEE0aUg5b0tBSFEmIzEwO3NUNGVPSHYveCt0bjdqdVE4WUFBNkU4QUFCUnFLU0t1eEoyTCt2cFQ5SmN1WHJnK3JJc1phZ0IwTy8vNXIzKzRlV3IyeWRyY2cyOXImIzEwO1Z3WTNIaEFBL1FrQWdBUFRpb2dYb3YvTS9mS2xpeGRlTHZvaXV4VVdBQjJ6bi92VE43V09uSHBxYWZiTkh4akVlRUFBOUNjQUFQYWsmIzEwO0hSRS9qYTJmbW4veDBzVUxLMFZmNkc0VUhnQWRneG9QQ0lEK0JBQkFUOXR0cXJ0eTZlS0ZpYnNuOXNnRVFMZTE4Y0MvcnMwOStQQnUmIzEwO3h3TUNvRDhCQUNUVWExTmQ5MVAwVndhMXFXN2NqR1FBZEt5UEIrYmUvSUhXa1oyTkJ3UkFmd0lBbURDZFRYVTlaKzR4NUUxMTQyYWsmIzEwO0E2RGozSmUrTVJXbDBoZnFaKzc3MkhiakFRSFFud0FBeGtncklxN0cxaStIRzZsTmRlTm1MQUtnMi9uUC84ZVBORStkZjdMZmVFQUEmIzEwOzlDY0FnQkd4RWh0UHF1djFGUDFQeDIxVDNiZ1p1d0RvT1AvNXI3OTUrY2lKcnl6TmJod1BDSUQrQkFBd0pKczMxVzEraXY3cUpHNnEmIzEwO0d6ZGpHd0FkcStPQjhoZnJaKzc5bmZxWiswNExnUDRFQURBQU4yTDdrK3BxUlY4azJ4djdBT2gyL29uLzlJK2F4MmUrdUZpZWVxUmQmIzEwO2RrUEN6UVFBc0kybDJINXh0Nmx1UWt4VUFIU2MvL1FmdmJrMWZmUXJTNmZ2K1VEcnJxTktZSTBBZ05UNmJhcnJQb2IybGFJdmt1R1omIzEwO3lBRG9PUHY3Znp3VnBkSVg2eWZPL1U3OXhMbWgzNXA0MUFnQW1GamRtK3I2dlNUT3BqbzJtT2dBNkhiKzAvL3VJNDFqcDUrc3pkenomIzEwO2NOYnhnQUNBc2ZWS2JILzdWNXZxMkpVMEFkQ1JlVHdnQUdBazJWUkhJZElGUU1mWjMvL2pxWWo0UXYzaytZOWxHUThJQUJpNld0eDUmIzEwOys5Y05UOUZmdW5qaFJ0RVhTVTVwQTZEYjJuamd5N1daZTk0MnllTUJBUUFEMVl6VjI3OXVkUXl0VFhXTUxBSFE1ZnludnZxbTFsM0gmIzEwO25wclU4WUFBZ0IxYmllMXYvMnBUSFdOTkFQUndlenh3N21QMUUrY25aandnQUdEZFZwdnFmaElSTDloVXg2UVRBTnM0LytrLytuRGomIzEwOzJNeVRrekFlRUFBa3NYbFQzZWFuNksvWVZBY0NZTWR1andmdS9rRHJybU5qV1FJQ2dBbFFpKzEzek50VUJ6c2dBSFpwYlR6d1JQM2smIzEwO3VZK1AyM2hBQUREaW1ySDk3Vjl0cW9NQkVRRDdNRzdqQVFGQWdiYmFWTmQ1aXY2YVRYVXdQQUpnQU1abFBDQUFPRURkbStwNnZTek8mIzEwO3Bqb1lNUUpnZ0VaOVBDQUEyS1Byc2YzY2Zhbm9pd1IyUndBY2tQWHh3T2w3M3RhdWpNYVRBZ0tBSG15cWc2UUV3QUdiL2IwL2ZLQjEmIzEwOytQaFR0ZFAzZkxEbzhZQUFTS2ZmcHJydTI3KytXdlJGQXNVUUFFT3lPaDVvUDFFL2NmN2o5WlBGakFjRXdFVHAzbFRYN3loYW0rcUEmIzEwO3ZnUkFBYzUvNnFzZmJoeWIrWEp0NXQ1SGhqa2VFQUJqNWVYWS92YXZyYUl2RWhoZkFxQkF3eDRQQ0lDUllWTWRVRGdCTUFLR05SNFEmIzEwO0FFT3hHTnZmL3ZWbTBSY0pJQUJHekVHT0J3VEF2blUyMVcxMSsxZWI2b0N4SUFCRzFPenYvZUVEcmJ1T1AxV2JHZHg0UUFCc2FTVWkmIzEwO1hvenRiLy9xZnhoZ0lnaUFFVGYzaWE5VVc5Tkh2akNJOFVEeUFOaHFVMTNuOXE4MjFRRnBDSUF4Y3Y1VFgvM3QxWHNQN0cwOE1NRUImIzEwOzBMMnBydGZUODFkc3FnUFlTQUNNb2IyT0I4WTBBQlpqK3gzek50VUI3SklBR0dOem4vaEtkZm5Ra1NlV1RwNy8zWjJNQjBZd0FCcXgmIzEwOy9lMWZiYW9ET0FBQ1lFTHNaRHd3NUFEb3Q2bXUreW42YXpiVkFSUkRBRXlZMlU4KzljYlc0Uk5QMVdidWZXenplR0RBQWREWlZOZnYmIzEwO0pYRTIxUUdNTUFFd29XNlBCODU5dkg1eWRpWmlWd0V3SDF2UDNXMnFBeGh6QWlDQnpuamcwTUxyYnpuN3ZmL1JESnZxQU5JVEFJazgmIzEwOzlJLy8xYUgvOS9XbkdrVmZCd0RGRXdBQWtGQzU2QXNBQUlaUEFBQkFRZ0lBQUJJU0FBQ1FrQUFBZ0lRRUFBQWtKQUFBSUNFQkFBQUomIzEwO0NRQUFTRWdBQUVCQ0FnQUFFaElBQUpDUUFBQ0FoQVFBQUNRa0FBQWdJUUVBQUFrSkFBQklTQUFBUUVJQ0FBQVNFZ0FBa0pBQUFJQ0UmIzEwO0JBQUFKQ1FBQUNBaEFRQUFDUWtBQUVoSUFBQkFRZ0lBQUJJU0FBQ1FrQUFBZ0lRRUFBQWtKQUFBSUNFQkFBQUpDUUFBU0VnQUFFQkMmIzEwO0FnQUFFaElBQUpDUUFBQ0FoQVFBQUNRa0FBQWdJUUVBQUFrSkFBQklTQUFBUUVJQ0FBQVNFZ0FBa0pBQUFJQ0VCQUFBSkNRQUFDQWgmIzEwO0FRQUFDUWtBQUVoSUFBQkFRZ0lBQUJJU0FBQ1FrQUFBZ0lRRUFBQWtKQUFBSUNFQkFBQUpDUUFBU0VnQUFFQkNBZ0FBRWhJQUFKQ1EmIzEwO0FBQ0FoQVFBQUNRa0FBQWdJUUVBQUFrSkFBQklTQUFBUUVJQ0FBQVNFZ0FBa0pBQUFJQ0VCQUFBSkNRQUFDQWhBUUFBQ1FrQUFFaEkmIzEwO0FBQkFRZ0lBQUJJU0FBQ1FrQUFBZ0lRRUFBQWtKQUFBSUNFQkFBQUpDUUFBU0VnQUFFQkNBZ0FBRWhJQUFKQ1FBQUNBaEFRQUFDUWsmIzEwO0FBQWdJUUVBQUFrSkFBQklTQUFBUUVJQ0FBQVNFZ0FBa0pBQUFJQ0VCQUFBSkNRQUFDQWhBUUFBQ1FrQUFFaElBQUJBUWdJQUFCSVMmIzEwO0FBQ1FrQUFBZ0lRRUFBQWtKQUFBSUNFQkFBQUovWDhrWUVQYUxYUm5kUUFBQUNWMFJWaDBaR0YwWlRwamNtVmhkR1VBTWpBeU5DMHcmIzEwO05TMHhObFF4TkRvd09Ub3lNaXN3TWpvd01HU1FwQm9BQUFBbGRFVllkR1JoZEdVNmJXOWthV1o1QURJd01qUXRNRFV0TVRaVU1UUTYmIzEwO01EazZNaklyTURJNk1EQVZ6UnltQUFBQUdYUkZXSFJUYjJaMGQyRnlaUUIzZDNjdWFXNXJjMk5oY0dVdWIzSm5tKzQ4R2dBQUFBQkomIzEwO1JVNUVya0pnZ2c9PSIgeT0iMCIgeD0iMCIgaGVpZ2h0PSI1MTIiIHdpZHRoPSI1MTIiIGlkPSJpbWFnZTAiLz4mI3hhOzwvc3ZnPg==;" vertex="1" parent="1">
          <mxGeometry x="1357.6200000000001" y="328.35" width="80" height="80" as="geometry" />
        </mxCell>
        <mxCell id="wB5PeuQDO5lMFYIjouoQ-13" value="&lt;b&gt;&lt;font color=&quot;#59c2ff&quot; face=&quot;Helvetica&quot;&gt;Dépot de code local&lt;/font&gt;&lt;/b&gt;" style="text;html=1;align=center;verticalAlign=middle;resizable=0;points=[];autosize=1;strokeColor=#247BFF;fillColor=none;" vertex="1" parent="1">
          <mxGeometry x="1070" y="360" width="140" height="30" as="geometry" />
        </mxCell>
        <mxCell id="wB5PeuQDO5lMFYIjouoQ-14" value="&lt;b&gt;&lt;font color=&quot;#59c2ff&quot; face=&quot;Helvetica&quot;&gt;Docker Engine&lt;/font&gt;&lt;/b&gt;" style="text;html=1;align=center;verticalAlign=middle;resizable=0;points=[];autosize=1;strokeColor=#247BFF;fillColor=none;" vertex="1" parent="1">
          <mxGeometry x="1342.62" y="140" width="110" height="30" as="geometry" />
        </mxCell>
        <mxCell id="wB5PeuQDO5lMFYIjouoQ-15" value="&lt;b&gt;&lt;font color=&quot;#59c2ff&quot; face=&quot;Helvetica&quot;&gt;Création d&#39;une image&lt;/font&gt;&lt;/b&gt;" style="text;html=1;align=center;verticalAlign=middle;resizable=0;points=[];autosize=1;strokeColor=#247BFF;fillColor=none;" vertex="1" parent="1">
          <mxGeometry x="1322.62" y="408.35" width="150" height="30" as="geometry" />
        </mxCell>
        <mxCell id="wB5PeuQDO5lMFYIjouoQ-18" value="" style="shape=image;verticalLabelPosition=bottom;labelBackgroundColor=default;verticalAlign=top;aspect=fixed;imageAspect=0;image=data:image/svg+xml,PHN2ZyB4bWxuczp4bGluaz0iaHR0cDovL3d3dy53My5vcmcvMTk5OS94bGluayIgeG1sbnM9Imh0dHA6Ly93d3cudzMub3JnLzIwMDAvc3ZnIiB2aWV3Qm94PSIwLCAwLCAxNTAwLCAxNTAwIiBoZWlnaHQ9IjE1MDAiIHdpZHRoPSIxNTAwIiB5PSIwIiB4PSIwIiB2ZXJzaW9uPSIxLjEiPiYjeGE7ICA8ZyBpZD0icHl0ZXN0X2xvZ28iPiYjeGE7ICAgIDxnIGlkPSJncmFwaGljcyI+JiN4YTsgICAgICA8cGF0aCBpZD0iaG9yaXpvbnRhbF9iYXIiIGZpbGw9IiM2OTY5NjkiIGQ9Ik01MjEuNTc2LDIxMy43NSBMOTUyLjYxNiwyMTMuNzUgQzk2NC4yODMsMjEzLjc1IDk3My43NDEsMjIzLjIwOCA5NzMuNzQxLDIzNC44NzUgTDk3My43NDEsMjM0Ljg3NSBDOTczLjc0MSwyNDYuNTQyIDk2NC4yODMsMjU2IDk1Mi42MTYsMjU2IEw1MjEuNTc2LDI1NiBDNTA5LjkwOSwyNTYgNTAwLjQ1MSwyNDYuNTQyIDUwMC40NTEsMjM0Ljg3NSBMNTAwLjQ1MSwyMzQuODc1IEM1MDAuNDUxLDIyMy4yMDggNTA5LjkwOSwyMTMuNzUgNTIxLjU3NiwyMTMuNzUgeiIvPiYjeGE7ICAgICAgPGcgaWQ9InRvcF9iYXJzIj4mI3hhOyAgICAgICAgPHBhdGggZmlsbD0iIzAwOUZFMyIgZD0iTTUyNS4zMzMsMTcxIEw2MTIsMTcxIEw2MTIsMTkxIEw1MjUuMzMzLDE5MSBMNTI1LjMzMywxNzEgeiIvPiYjeGE7ICAgICAgICA8cGF0aCBmaWxsPSIjQzdEMzAyIiBkPSJNNjM4LjY2NywxNzEgTDcyNS4zMzMsMTcxIEw3MjUuMzMzLDE5MSBMNjM4LjY2NywxOTEgTDYzOC42NjcsMTcxIHoiLz4mI3hhOyAgICAgICAgPHBhdGggZmlsbD0iI0YwN0UxNiIgZD0iTTc1MC41LDE3MSBMODM3LjE2NywxNzEgTDgzNy4xNjcsMTkxIEw3NTAuNSwxOTEgTDc1MC41LDE3MSB6Ii8+JiN4YTsgICAgICAgIDxwYXRoIGZpbGw9IiNERjI4MTUiIGQ9Ik04NjEuODYxLDE3MSBMOTQ4LjUyOCwxNzEgTDk0OC41MjgsMTkxIEw4NjEuODYxLDE5MSBMODYxLjg2MSwxNzEgeiIvPiYjeGE7ICAgICAgPC9nPiYjeGE7ICAgICAgPGcgaWQ9ImJvdHRvbV9iYXJzIj4mI3hhOyAgICAgICAgPHBhdGggZmlsbD0iI0RGMjgxNSIgZD0iTTg2MS44NjEsMjc4IEw5NDguNTI4LDI3OCBMOTQ4LjUyOCw0MjQuNSBMODYxLjg2MSw0MjQuNSBMODYxLjg2MSwyNzggeiIvPiYjeGE7ICAgICAgICA8cGF0aCBmaWxsPSIjRjA3RTE2IiBkPSJNNzUwLjUsMjc4IEw4MzcuMzI4LDI3OCBMODM3LjMyOCw1MTYgTDc1MC41LDUxNiBMNzUwLjUsMjc4IHoiLz4mI3hhOyAgICAgICAgPHBhdGggZmlsbD0iI0M3RDMwMiIgZD0iTTYzOC42NjcsMjc4IEw3MjUuMzI4LDI3OCBMNzI1LjMyOCw2MzQuNSBMNjM4LjY2Nyw2MzQuNSBMNjM4LjY2NywyNzggeiIvPiYjeGE7ICAgICAgICA8cGF0aCBmaWxsPSIjMDA5RkUzIiBkPSJNNTI1LjMzMywyNzggTDYxMiwyNzggTDYxMiw3MTIuNSBMNTI1LjMzMyw3MTIuNSBMNTI1LjMzMywyNzggeiIvPiYjeGE7ICAgICAgPC9nPiYjeGE7ICAgIDwvZz4mI3hhOyAgICA8ZyBpZD0icHl0ZXN0Ij4mI3hhOyAgICAgIDxwYXRoIGZpbGw9IiM2OTY5NjkiIGQ9Ik0yNTIuOTU5LDExNzMuODQ2IFEyNDAuMTM5LDExNzMuODQ2IDIyOS43MSwxMTcxLjAyMSBRMjE5LjI4LDExNjguMTk2IDIxMC45MTQsMTE2My41MjUgUTIwMi41NDksMTE1OC44NTMgMTk2LjEzOSwxMTUyLjU1MiBRMTg5LjcyOSwxMTQ2LjI1IDE4NC43MzIsMTEzOS4yOTcgTDE4Mi4xMjQsMTEzOS4yOTcgUTE4Mi43NzYsMTE0Ni42ODUgMTgzLjQyOCwxMTUzLjQyMSBRMTgzLjg2MiwxMTU5LjA3IDE4NC4yOTcsMTE2NS4wNDYgUTE4NC43MzIsMTE3MS4wMjEgMTg0LjczMiwxMTc0LjQ5OCBMMTg0LjczMiwxMjc2LjQwNCBMMTQ1LjE4NiwxMjc2LjQwNCBMMTQ1LjE4Niw5MzAuOTIxIEwxNzcuMzQ0LDkzMC45MjEgTDE4Mi45OTMsOTYzLjA3OSBMMTg0LjczMiw5NjMuMDc5IFExODkuNzI5LDk1NS40NzQgMTk2LjAzLDk0OC44NDcgUTIwMi4zMzIsOTQyLjIyIDIxMC42OTcsOTM3LjMzMSBRMjE5LjA2Myw5MzIuNDQyIDIyOS40OTIsOTI5LjUwOSBRMjM5LjkyMiw5MjYuNTc1IDI1Mi45NTksOTI2LjU3NSBRMjczLjM4NCw5MjYuNTc1IDI5MC4xMTUsOTM0LjM5NyBRMzA2Ljg0Niw5NDIuMjIgMzE4LjY4OCw5NTcuNzU2IFEzMzAuNTMsOTczLjI5MiAzMzcuMDQ4LDk5Ni4zMjQgUTM0My41NjcsMTAxOS4zNTYgMzQzLjU2NywxMDQ5Ljc3NiBRMzQzLjU2NywxMDgwLjQxMyAzMzcuMDQ4LDExMDMuNTU0IFEzMzAuNTMsMTEyNi42OTUgMzE4LjY4OCwxMTQyLjMzOSBRMzA2Ljg0NiwxMTU3Ljk4NCAyOTAuMTE1LDExNjUuOTE1IFEyNzMuMzg0LDExNzMuODQ2IDI1Mi45NTksMTE3My44NDYgeiBNMjQ1LjM1NCw5NTkuMzg1IFEyMjguODQsOTU5LjM4NSAyMTcuNDMzLDk2NC4zODMgUTIwNi4wMjUsOTY5LjM4IDE5OC45NjQsOTc5LjU5MyBRMTkxLjkwMiw5ODkuODA1IDE4OC41MzQsMTAwNS4wMTUgUTE4NS4xNjYsMTAyMC4yMjUgMTg0LjczMiwxMDQwLjg2NyBMMTg0LjczMiwxMDQ5Ljc3NiBRMTg0LjczMiwxMDcxLjcyMiAxODcuNjY1LDEwODguNzc5IFExOTAuNTk4LDExMDUuODM1IDE5Ny42NiwxMTE3LjQ2IFEyMDQuNzIyLDExMjkuMDg1IDIxNi40NTUsMTEzNS4wNiBRMjI4LjE4OSwxMTQxLjAzNiAyNDUuNzg5LDExNDEuMDM2IFEyNzUuMTIyLDExNDEuMDM2IDI4OC45MiwxMTE3LjM1MiBRMzAyLjcxNywxMDkzLjY2NyAzMDIuNzE3LDEwNDkuMzQxIFEzMDIuNzE3LDEwMDQuMTQ2IDI4OC45Miw5ODEuNzY2IFEyNzUuMTIyLDk1OS4zODUgMjQ1LjM1NCw5NTkuMzg1IHoiLz4mI3hhOyAgICAgIDxwYXRoIGZpbGw9IiM2OTY5NjkiIGQ9Ik0zNzAuMjkzLDkzMC45MjEgTDQxMS4zNiw5MzAuOTIxIEw0NTguMDc2LDEwNjQuMTE3IFE0NjEuMTE4LDEwNzIuODA4IDQ2NC4yNjksMTA4Mi4zNjkgUTQ2Ny40MiwxMDkxLjkyOSA0NzAuMTM2LDExMDEuNDkgUTQ3Mi44NTIsMTExMS4wNSA0NzQuODA3LDExMTkuOTU5IFE0NzYuNzYzLDExMjguODY4IDQ3Ny42MzIsMTEzNi40NzMgTDQ3OC45MzYsMTEzNi40NzMgUTQ4MC4wMjIsMTEzMS4wNDEgNDgyLjQxMiwxMTIxLjY5NyBRNDg0LjgwMiwxMTEyLjM1NCA0ODcuNzM2LDExMDEuODE2IFE0OTAuNjY5LDEwOTEuMjc3IDQ5My44MiwxMDgxLjA2NSBRNDk2Ljk3LDEwNzAuODUzIDQ5OS4zNiwxMDYzLjY4MiBMNTQyLjYsOTMwLjkyMSBMNTgzLjQ1LDkzMC45MjEgTDQ4OS4xNDgsMTIwMC41NzIgUTQ4My4wNjQsMTIxOC4xNzIgNDc2LjAwMiwxMjMyLjE4NyBRNDY4Ljk0MSwxMjQ2LjIwMiA0NTkuNTk3LDEyNTUuOTc5IFE0NTAuMjU0LDEyNjUuNzU3IDQzNy42NTEsMTI3MS4wODEgUTQyNS4wNDksMTI3Ni40MDQgNDA3LjY2NiwxMjc2LjQwNCBRMzk2LjM2NywxMjc2LjQwNCAzODguMTEsMTI3NS4yMDkgUTM3OS44NTQsMTI3NC4wMTQgMzczLjk4NywxMjcyLjcxIEwzNzMuOTg3LDEyNDEuMjA0IFEzNzguNTUsMTI0Mi4yOTEgMzg1LjUwMywxMjQzLjA1MSBRMzkyLjQ1NiwxMjQzLjgxMiA0MDAuMDYxLDEyNDMuODEyIFE0MTAuNDkxLDEyNDMuODEyIDQxOC4wOTYsMTI0MS4zMTMgUTQyNS43MDEsMTIzOC44MTQgNDMxLjM1LDEyMzQuMDM0IFE0MzcsMTIyOS4yNTMgNDQxLjAxOSwxMjIyLjMgUTQ0NS4wMzksMTIxNS4zNDcgNDQ4LjI5OCwxMjA2LjQzOCBMNDYwLjY4NCwxMTcxLjY3MyB6Ii8+JiN4YTsgICAgICA8cGF0aCBmaWxsPSIjMDA5RkUzIiBkPSJNNjk1LjU2OCwxMTQxLjQ3IFE2OTkuNDc5LDExNDEuNDcgNzA0LjM2OCwxMTQxLjAzNiBRNzA5LjI1NywxMTQwLjYwMSA3MTMuODIsMTEzOS45NDkgUTcxOC4zODMsMTEzOS4yOTcgNzIyLjE4NiwxMTM4LjQyOCBRNzI1Ljk4OCwxMTM3LjU1OSA3MjcuOTQ0LDExMzYuOTA3IEw3MjcuOTQ0LDExNjYuODkzIFE3MjUuMTE5LDExNjguMTk2IDcyMC43NzMsMTE2OS41IFE3MTYuNDI4LDExNzAuODA0IDcxMS4yMTMsMTE3MS43ODEgUTcwNS45OTgsMTE3Mi43NTkgNzAwLjM0OSwxMTczLjMwMiBRNjk0LjY5OSwxMTczLjg0NiA2ODkuMjY3LDExNzMuODQ2IFE2NzUuNzk1LDExNzMuODQ2IDY2NC4yNzksMTE3MC4zNjkgUTY1Mi43NjMsMTE2Ni44OTMgNjQ0LjM5OCwxMTU4LjQxOCBRNjM2LjAzMiwxMTQ5Ljk0NCA2MzEuMjUyLDExMzUuNDk1IFE2MjYuNDcyLDExMjEuMDQ1IDYyNi40NzIsMTA5OS4xIEw2MjYuNDcyLDk2MC42ODkgTDU5Mi43OTIsOTYwLjY4OSBMNTkyLjc5Miw5NDMuMDg5IEw2MjYuNDcyLDkyNi4xNDEgTDY0My40Miw4NzYuMTY1IEw2NjYuMjM1LDg3Ni4xNjUgTDY2Ni4yMzUsOTMwLjkyMSBMNzI2LjIwNiw5MzAuOTIxIEw3MjYuMjA2LDk2MC42ODkgTDY2Ni4yMzUsOTYwLjY4OSBMNjY2LjIzNSwxMDk5LjEgUTY2Ni4yMzUsMTEyMC4xNzYgNjczLjA3OSwxMTMwLjgyMyBRNjc5LjkyNCwxMTQxLjQ3IDY5NS41NjgsMTE0MS40NyB6Ii8+JiN4YTsgICAgICA8cGF0aCBmaWxsPSIjMDA5RkUzIiBkPSJNODY4LjUyNywxMTczLjg0NiBRODQ0LjYyNiwxMTczLjg0NiA4MjQuODUzLDExNjUuODA2IFE4MDUuMDgsMTE1Ny43NjcgNzkwLjg0OCwxMTQyLjMzOSBRNzc2LjYxNiwxMTI2LjkxMiA3NjguNzkzLDExMDQuMDk3IFE3NjAuOTcxLDEwODEuMjgyIDc2MC45NzEsMTA1MS45NDkgUTc2MC45NzEsMTAyMi4zOTggNzY4LjE0Miw5OTkuMTQ4IFE3NzUuMzEyLDk3NS44OTkgNzg4LjM0OSw5NTkuNzExIFE4MDEuMzg2LDk0My41MjMgODE5LjUyOSw5MzUuMDQ5IFE4MzcuNjczLDkyNi41NzUgODU5LjYxOSw5MjYuNTc1IFE4ODEuMTMsOTI2LjU3NSA4OTguMjk1LDkzNC4yODkgUTkxNS40NjEsOTQyLjAwMiA5MjcuNDEyLDk1Ni4wMTcgUTkzOS4zNjIsOTcwLjAzMiA5NDUuNzcyLDk4OS42OTcgUTk1Mi4xODIsMTAwOS4zNjEgOTUyLjE4MiwxMDMzLjI2MiBMOTUyLjE4MiwxMDU3LjgxNSBMODAxLjgyMSwxMDU3LjgxNSBRODAyLjkwNywxMDk5Ljc1MSA4MTkuNTI5LDExMTkuNTI0IFE4MzYuMTUyLDExMzkuMjk3IDg2OC45NjIsMTEzOS4yOTcgUTg4MC4wNDMsMTEzOS4yOTcgODg5LjQ5NSwxMTM4LjIxMSBRODk4Ljk0NywxMTM3LjEyNSA5MDcuNzQ3LDExMzUuMDYgUTkxNi41NDcsMTEzMi45OTYgOTI0LjgwNCwxMTI5Ljg0NSBROTMzLjA2MSwxMTI2LjY5NSA5NDEuNTM1LDExMjIuNzg0IEw5NDEuNTM1LDExNTcuOTg0IFE5MzIuODQ0LDExNjIuMTEyIDkyNC40NzgsMTE2NS4xNTQgUTkxNi4xMTMsMTE2OC4xOTYgOTA3LjMxMywxMTcwLjE1MiBRODk4LjUxMywxMTcyLjEwNyA4ODkuMDYxLDExNzIuOTc3IFE4NzkuNjA5LDExNzMuODQ2IDg2OC41MjcsMTE3My44NDYgeiBNODU4Ljc0OSw5NTkuMzg1IFE4MzMuOTc5LDk1OS4zODUgODE5LjUyOSw5NzYuMzMzIFE4MDUuMDgsOTkzLjI4MiA4MDIuNjksMTAyNS42NTcgTDkwOS41OTQsMTAyNS42NTcgUTkwOS41OTQsMTAxMC44ODIgOTA2LjY2MSw5OTguNjA1IFE5MDMuNzI3LDk4Ni4zMjkgODk3LjUzNSw5NzcuNjM3IFE4OTEuMzQyLDk2OC45NDYgODgxLjc4Miw5NjQuMTY2IFE4NzIuMjIxLDk1OS4zODUgODU4Ljc0OSw5NTkuMzg1IHoiLz4mI3hhOyAgICAgIDxwYXRoIGZpbGw9IiMwMDlGRTMiIGQ9Ik0xMTU1LjEyNiwxMTA0LjA5NyBRMTE1NS4xMjYsMTEyMS40OCAxMTQ4LjgyNSwxMTM0LjUxNyBRMTE0Mi41MjQsMTE0Ny41NTQgMTEzMC42ODIsMTE1Ni4zNTQgUTExMTguODQsMTE2NS4xNTQgMTEwMi4xMDksMTE2OS41IFExMDg1LjM3OCwxMTczLjg0NiAxMDY0LjUxOCwxMTczLjg0NiBRMTA0MC44MzQsMTE3My44NDYgMTAyMy44ODYsMTE3MC4wNDMgUTEwMDYuOTM4LDExNjYuMjQxIDk5NC4xMTgsMTE1OC44NTMgTDk5NC4xMTgsMTEyMi43ODQgUTEwMDAuODU0LDExMjYuMjYgMTAwOS4xMTEsMTEyOS42MjggUTEwMTcuMzY4LDExMzIuOTk2IDEwMjYuNDk0LDExMzUuNjA0IFExMDM1LjYyLDExMzguMjExIDEwNDUuMjg5LDExMzkuODQxIFExMDU0Ljk1OCwxMTQxLjQ3IDEwNjQuNTE4LDExNDEuNDcgUTEwNzguNjQyLDExNDEuNDcgMTA4OC41MjgsMTEzOS4wOCBRMTA5OC40MTUsMTEzNi42OSAxMTA0LjYwOCwxMTMyLjIzNiBRMTExMC44LDExMjcuNzgxIDExMTMuNjI1LDExMjEuMzcxIFExMTE2LjQ1LDExMTQuOTYxIDExMTYuNDUsMTEwNy4xMzkgUTExMTYuNDUsMTEwMC40MDMgMTExNC4yNzcsMTA5NC45NzEgUTExMTIuMTA0LDEwODkuNTM5IDExMDYuMzQ2LDEwODQuMjE2IFExMTAwLjU4OCwxMDc4Ljg5MiAxMDkwLjU5MywxMDczLjQ2IFExMDgwLjU5OCwxMDY4LjAyOCAxMDY0Ljk1MywxMDYxLjI5MiBRMTA0OS4zMDgsMTA1NC41NTYgMTAzNi44MTUsMTA0OC4wMzggUTEwMjQuMzIxLDEwNDEuNTE5IDEwMTUuNjI5LDEwMzMuNDc5IFExMDA2LjkzOCwxMDI1LjQ0IDEwMDIuMjY2LDEwMTQuOTAyIFE5OTcuNTk1LDEwMDQuMzYzIDk5Ny41OTUsOTg5LjgwNSBROTk3LjU5NSw5NzQuNTk1IDEwMDMuNTcsOTYyLjc1MyBRMTAwOS41NDUsOTUwLjkxMSAxMDIwLjQxLDk0Mi44NzIgUTEwMzEuMjc0LDkzNC44MzIgMTA0Ni40ODQsOTMwLjcwNCBRMTA2MS42OTQsOTI2LjU3NSAxMDgwLjM4LDkyNi41NzUgUTExMDEuNDU3LDkyNi41NzUgMTExOC45NDgsOTMxLjEzOCBRMTEzNi40NCw5MzUuNzAxIDExNTIuMDg0LDk0My4wODkgTDExMzguMzk1LDk3NS4wMyBRMTEyNC4yNzIsOTY4LjcyOSAxMTA5LjM4OCw5NjQuMDU3IFExMDk0LjUwNCw5NTkuMzg1IDEwNzkuMDc3LDk1OS4zODUgUTEwNTYuOTEzLDk1OS4zODUgMTA0Ni4yNjYsOTY2LjY2NCBRMTAzNS42Miw5NzMuOTQzIDEwMzUuNjIsOTg3LjQxNSBRMTAzNS42Miw5OTUuMDIgMTAzOC4xMTgsMTAwMC42NjkgUTEwNDAuNjE3LDEwMDYuMzE5IDEwNDYuNzAxLDEwMTEuMzE2IFExMDUyLjc4NSwxMDE2LjMxNCAxMDYyLjk5NywxMDIxLjQyIFExMDczLjIxLDEwMjYuNTI2IDEwODguNDIsMTAzMi44MjggUTExMDQuMDY0LDEwMzkuMzQ2IDExMTYuMzQxLDEwNDUuODY1IFExMTI4LjYxOCwxMDUyLjM4MyAxMTM3LjMwOSwxMDYwLjUzMSBRMTE0NiwxMDY4LjY4IDExNTAuNTYzLDEwNzkuMTA5IFExMTU1LjEyNiwxMDg5LjUzOSAxMTU1LjEyNiwxMTA0LjA5NyB6Ii8+JiN4YTsgICAgICA8cGF0aCBmaWxsPSIjMDA5RkUzIiBkPSJNMTI4NS4yOCwxMTQxLjQ3IFExMjg5LjE5MSwxMTQxLjQ3IDEyOTQuMDgsMTE0MS4wMzYgUTEyOTguOTY5LDExNDAuNjAxIDEzMDMuNTMyLDExMzkuOTQ5IFExMzA4LjA5NSwxMTM5LjI5NyAxMzExLjg5OCwxMTM4LjQyOCBRMTMxNS43LDExMzcuNTU5IDEzMTcuNjU2LDExMzYuOTA3IEwxMzE3LjY1NiwxMTY2Ljg5MyBRMTMxNC44MzEsMTE2OC4xOTYgMTMxMC40ODUsMTE2OS41IFExMzA2LjE0LDExNzAuODA0IDEzMDAuOTI1LDExNzEuNzgxIFExMjk1LjcxLDExNzIuNzU5IDEyOTAuMDYsMTE3My4zMDIgUTEyODQuNDExLDExNzMuODQ2IDEyNzguOTc5LDExNzMuODQ2IFExMjY1LjUwNywxMTczLjg0NiAxMjUzLjk5MSwxMTcwLjM2OSBRMTI0Mi40NzUsMTE2Ni44OTMgMTIzNC4xMDksMTE1OC40MTggUTEyMjUuNzQ0LDExNDkuOTQ0IDEyMjAuOTY0LDExMzUuNDk1IFExMjE2LjE4MywxMTIxLjA0NSAxMjE2LjE4MywxMDk5LjEgTDEyMTYuMTgzLDk2MC42ODkgTDExODIuNTA0LDk2MC42ODkgTDExODIuNTA0LDk0My4wODkgTDEyMTYuMTgzLDkyNi4xNDEgTDEyMzMuMTMyLDg3Ni4xNjUgTDEyNTUuOTQ3LDg3Ni4xNjUgTDEyNTUuOTQ3LDkzMC45MjEgTDEzMTUuOTE3LDkzMC45MjEgTDEzMTUuOTE3LDk2MC42ODkgTDEyNTUuOTQ3LDk2MC42ODkgTDEyNTUuOTQ3LDEwOTkuMSBRMTI1NS45NDcsMTEyMC4xNzYgMTI2Mi43OTEsMTEzMC44MjMgUTEyNjkuNjM2LDExNDEuNDcgMTI4NS4yOCwxMTQxLjQ3IHoiLz4mI3hhOyAgICA8L2c+JiN4YTsgIDwvZz4mI3hhOzwvc3ZnPg==;" vertex="1" parent="1">
          <mxGeometry x="1091.97" y="249.99999999999997" width="78.35" height="78.35" as="geometry" />
        </mxCell>
        <mxCell id="wB5PeuQDO5lMFYIjouoQ-19" value="" style="shape=image;verticalLabelPosition=bottom;labelBackgroundColor=default;verticalAlign=top;aspect=fixed;imageAspect=0;image=data:image/svg+xml,PHN2ZyB4bWxucz0iaHR0cDovL3d3dy53My5vcmcvMjAwMC9zdmciIHByZXNlcnZlQXNwZWN0UmF0aW89InhNaW5ZTWluIG1lZXQiIHZpZXdCb3g9IjAgMCAyNTYgMjU2IiBoZWlnaHQ9IjI1MDAiIHdpZHRoPSIyNTAwIj48cGF0aCBmaWxsPSIjREU0QzM2IiBkPSJNMjUxLjE3MiAxMTYuNTk0TDEzOS40IDQuODI4Yy02LjQzMy02LjQzNy0xNi44NzMtNi40MzctMjMuMzE0IDBsLTIzLjIxIDIzLjIxIDI5LjQ0MyAyOS40NDNjNi44NDItMi4zMTIgMTQuNjg4LS43NjEgMjAuMTQyIDQuNjkzIDUuNDggNS40ODkgNy4wMiAxMy40MDIgNC42NTIgMjAuMjY2bDI4LjM3NSAyOC4zNzZjNi44NjUtMi4zNjUgMTQuNzg2LS44MzUgMjAuMjY5IDQuNjU3IDcuNjYzIDcuNjYgNy42NjMgMjAuMDc1IDAgMjcuNzQtNy42NjUgNy42NjYtMjAuMDggNy42NjYtMjcuNzQ5IDAtNS43NjQtNS43Ny03LjE4OC0xNC4yMzUtNC4yNy0yMS4zMzZsLTI2LjQ2Mi0yNi40NjItLjAwMyA2OS42MzdhMTkuODIgMTkuODIgMCAwIDEgNS4xODggMy43MWM3LjY2MyA3LjY2IDcuNjYzIDIwLjA3NiAwIDI3Ljc0Ny03LjY2NSA3LjY2Mi0yMC4wODYgNy42NjItMjcuNzQgMC03LjY2My03LjY3MS03LjY2My0yMC4wODYgMC0yNy43NDZhMTkuNjU0IDE5LjY1NCAwIDAgMSA2LjQyMS00LjI4MVY5NC4xOTZhMTkuMzc4IDE5LjM3OCAwIDAgMS02LjQyMS00LjI4MWMtNS44MDYtNS43OTgtNy4yMDItMTQuMzE3LTQuMjI3LTIxLjQ0Nkw4MS40NyAzOS40NDJsLTc2LjY0IDc2LjYzNWMtNi40NCA2LjQ0My02LjQ0IDE2Ljg4NCAwIDIzLjMyMmwxMTEuNzc0IDExMS43NjhjNi40MzUgNi40MzggMTYuODczIDYuNDM4IDIzLjMxNiAwbDExMS4yNTEtMTExLjI0OWM2LjQzOC02LjQ0IDYuNDM4LTE2Ljg4NyAwLTIzLjMyNCIvPjwvc3ZnPg==;" vertex="1" parent="1">
          <mxGeometry x="1250.81" y="270" width="30" height="30" as="geometry" />
        </mxCell>
      </root>
    </mxGraphModel>
  </diagram>
</mxfile>
